/* XPM */
static char *result[] = {
/* columns rows colors chars-per-pixel */
"58 100 42 1 ",
"  c black",
". c #2A220E",
"X c #3A2E16",
"o c #222222",
"O c gray18",
"+ c #3A3A3A",
"@ c #760000",
"# c #42321A",
"$ c #4A3A1A",
"% c #563E1E",
"& c #5E4222",
"* c #6E4A26",
"= c #764E2A",
"- c gray29",
"; c #565656",
": c gray40",
"> c #727272",
", c #7E7E7E",
"< c #8E0000",
"1 c #9A0000",
"2 c #BE0000",
"3 c #82522E",
"4 c #8A5A32",
"5 c #925E36",
"6 c #9E623A",
"7 c #A2663E",
"8 c #AA6A42",
"9 c #B67246",
"0 c #BE7A4A",
"q c #CA7E4E",
"w c #D28252",
"e c #DE8A56",
"r c #EA8E5A",
"t c #F2965E",
"y c #FE9E62",
"u c #FEA672",
"i c #9A9A9A",
"p c #FEB282",
"a c #FEBA92",
"s c #FEC6A6",
"d c gray76",
"f c None",
/* pixels */
"ffffffffffffffffffffffffffffffffffffffffffffffffffffffffff",
"ffffffffffffffffffffffffffffffffffffffffffffffffffffffffff",
"ffffffffffffffffffffffffffffffffffffffffffffffffffffffffff",
"ffffffffffffffffffffffffffffffffffffffffffffffffffffffffff",
"ffffffffffffffffffffffffffffffffffffffffffffffffffffffffff",
"ffffffffffffffffffffffffffffffffffffffffffffffffffffffffff",
"ffffffffffffffffffffffffffffffffffffffffffffffffffffffffff",
"ffffffffffffffffffffffffffffffffffffffffffffffffffffffffff",
"ffffffffffffffffffffffffffffffffff++++++++++ffffffffffffff",
"ffffffffffffffffffffffffffffffff++--++o+--;;++ffffffffffff",
"fffffffffffffffffffffffffffffff+++;++ooooO+-;++fffffffffff",
"ffffffffffffffffffffffffffffff+++-;++oooooO+-;+fffffffffff",
"ffffffffffffffffffffffffffffff+++-;++oooooO+-;+fffffffffff",
"fffffffffffffffffffffffffffff+>O+-;++oooooo+-;-+ffffffffff",
"fffffffffffffffffffffffffffff+oO+--;+OOOOOOO--;+ffffffffff",
"fffffffffffffffffffffffffffff+++++--;;;::::::;;;+fffffffff",
"fffffffffffffffffffffffffffff+++--;;::>,,,,,,>::;+ffffffff",
"fffffffffffffffffffffffffffff-;;;;+   ......... ++ffffffff",
"ffffffffffffffffffffffffffff+::;+  X$36wtp7...   fffffffff",
"fffffffffffffffffffffffffff++;;+  4490ttussaeq* ffffffffff",
"fffffffffffffffffffffffffff      X5qqerrpppaqqq*ffffffffff",
"fffffffffffffffffffffffffff      X$38eewytur=473ffffffffff",
"ffffffffffffffffffffffffffff     &=49ee0ytp777ffffffffff2f",
"ffffffffffffffffffffffffffffff   34=49e0ery,d@<<f2f1ffffff",
"ffffffffffffffffffffq99qqqq07*   &88675690e4@@f<ffffffffff",
"ffffffffffffffeeerttr089qqqq7*#   3880==580r0*<f<f1ff2ffff",
"ffffffffffffqteteewtpr077qrq7*&     q4=***677*ffffffffffff",
"ffffffffffqrttteew9wtpt077qw04*X   + 406%%***ffff1ffffffff",
"ffffffffwwtttewww9900wtw760eq85*X  ;+ 06X ffffffff2fffffff",
"fffffffww3333989w94440w0648re86=&X  ; 6X+ ffffffffffffffff",
"fffffffrppuu338897=$=608==8rrqq4=&&   6  X55ffffffffffffff",
"ffffffuuppuuu34497=#33*=&=8rrqr7=&&&  X X3395fffffffffffff",
"ffffffqupw99uu==75##&&&#&&8rrrrq9=&&&&&X=447q5ffffffffffff",
"ffffffqepp9=##=5%%##&&%#&&8rr67qq9=&&4&3=4479e5fffffffffff",
"fffffupqwyy5.#&7%X%33%.#%&30r668eq63=4&334*35qe5ffffffffff",
"fffffqpwf99ff&&&&&&###.#&3&5q6qq6w0633&X57*35595ffffffffff",
"fffff7qwffffffff99064&%#=74*84rwq6963&3357**73585fffffffff",
"fffffq7yffffffff9900964==7w4=577qq863&=579**75485fffffffff",
"ffffffufffffffff990q998663qw8457335==X4797%&57345fffffffff",
"fffffffffffffffff98qeq08999er8886===#&777=$&&*3355ffffffff",
"fffffffffffffffff989etee0966r395*34=$$&**#.#&&**7*ffffffff",
"fffffffffffffffff997wete0q955366&*46X&#&&$..#&$$5*ffffffff",
"ffffffffffffffffff976ww969q9*37q&#*=6=&#$...$*30eq63ffffff",
"ffffffffffffffffff385509=69q7**7&##&X6=%X....434qq96*fffff",
"ffffffffffffffffff=35334#=6995$##..X$&6&f%...4$3399q*fffff",
"fffffffffffffffffff&$%%=#.=66=#$.....X&%ff.....4qqrq*fffff",
"ffffffffffffffffffffo   oo        o;i;#fffX....==4qq*fffff",
"fffffffffffffffffffooo      ooo  o +;; ffffX...48qrr*fffff",
"fffffffffffffffffffooooo ........  +++offfff$..==663ffffff",
"fffffffffffffffffff**qqqerrq053==3*&   ffffff$$%===fffffff",
"ffffffffffffffffff5qqqqqqettrqq643*%  %fffffffffffffffffff",
"fffffffffffffffff0q0q0werreeeee063*%  &%ffffffffffffffffff",
"ffffffffffffffff8q09wyyyyyyttew05*&%  3%ffffffffffffffffff",
"ffffffffffffffff0rwwyyyyyyytrew85*&#  3%ffffffffffffffffff",
"fffffffffffffffqrrttyyyyyyyrre073*%X..%%ffffffffffffffffff",
"fffffffffffffff9rtrtttttttrrr086*&#...$%%fffffffffffffffff",
"ffffffffffffffff99rrrrrrrrqq0065*#..=.$&%fffffffffffffffff",
"ffffffffffffffffff998888885543=%#..$=..$%fffffffffffffffff",
"ffffffffffffffffff=======&&&&%%...$*4X.#%fffffffffffffffff",
"ffffffffffffffffff555555**&%%XXXX%=*4&X.%fffffffffffffffff",
"ffffffffffffffffffyuytt08553*%XX%=4*4&XX.fffffffffffffffff",
"fffffffffffffffffeuuuytrr085=*%==74$=&ffffffffffffffffffff",
"fffffffffffffffffeuayytrrr085=57674$&&ffffffffffffffffffff",
"fffffffffffffffffeuupytrrrr08587674$$&ffffffffffffffffffff",
"fffffffffffffffffeyupputtrrewq9967*$$&ffffffffffffffffffff",
"fffffffffffffffffqypppyuyyeewqq097&$%&ffffffffffffffffffff",
"fffffffffffffffff9uptttreeeeewq093&&**&fffffffffffffffffff",
"fffffffffffffffff9uptyuppreeew097%&&**&fffffffffffffffffff",
"fffffffffffffffff9uuppuyyuurew064&&*=*&fffffffffffffffffff",
"fffffffffffffffff9utttttttruew04=&&*=*&fffffffffffffffffff",
"ffffffffffffffff0eee99999qwrr904=&*3=*&&ffffffffffffffffff",
"fffffffffffffff0etttrte077890974&&33=*&&ffffffffffffffffff",
"ffffffffffffff0tyuuuttreq957907*&*43=*&&ffffffffffffffffff",
"ffffffffffffffqtuuuyttreee9579=%$473=*&&ffffffffffffffffff",
"fffffffffffffqyyuurr000w9qq634%#*773=&%&ffffffffffffffffff",
"fffffffffffffqteruurr08844763%#*7873=&$&ffffffffffffffffff",
"fffffffffffffqteqq0000007=*==XX#$=8*&&$&ffffffffffffffffff",
"fffffffffffffqq#3885589973&##X$##$**&%$&ffffffffffffffffff",
"fffffffffffff0&###&53=6==63#&$0w54&&%$&fffffffffffffffffff",
"fffffffffffff&OoooooX$=X.=6=#$44**&%*%&fffffffffffffffffff",
"ffffffffffffoO-:-OooooX.X==##===&&%$=&ffffffffffffffffffff",
"ffffffffffffoO-:+Oooo  X&4$##333%&$*=&ffffffffffffffffffff",
"fffffffffffoOO;-+Oooo   &#.oo &&%%&=&fffffffffffffffffffff",
"fffffffffffoO-;++Ooo    #.     o&&3=&fffffffffffffffffffff",
"ffffffffffoOO;-+OOoo   ooO      oo&&ffffffffffffffffffffff",
"ffffffffffo++;+OOOo   OoO         o&ffffffffffffffffffffff",
"fffffffffo+-;-+Oooo  OfoO         offfffffffffffffffffffff",
"ffffffffo+--;;++oooO+ffo         offffffffffffffffffffffff",
"fffffffoo+--;;+OOOOo--fo         fffffffffffffffffffffffff",
"fffffffooooooooOOOoOooO;o       offfffffffffffffffffffffff",
"fffffffooooo oOOOooOoooo+;o     ffffffffffffffffffffffffff",
"fffffff+++++ o++++++++OooO;o   offffffffffffffffffffffffff",
"fffffff++++++ o++++++++++Oo-o  offffffffffffffffffffffffff",
"ffffffff+++++ o++++++++++++Oo  offffffffffffffffffffffffff",
"ffffffffff++++ o+++++++++++Oo ooofffffffffffffffffffffffff",
"ffffffffffff++ o+++++++++++o      offfffffffffffffffffffff",
"ffffffffffffffff+++++++++++         offfffffffffffffffffff",
"ffffffffffffffffffffffffO             ffffffffffffffffffff",
"ffffffffffffffffffffffffOO            ffffffffffffffffffff",
"ffffffffffffffffffffffffooOO       oooffffffffffffffffffff"
};
