/* XPM */
static char *result[] = {
/* columns rows colors chars-per-pixel */
"73 100 49 1 ",
"  c black",
". c #1E1E1E",
"X c #2A220E",
"o c #3A2E16",
"O c #222222",
"+ c gray18",
"@ c #3A3A3A",
"# c #6E0000",
"$ c #760000",
"% c #42321A",
"& c #4A3A1A",
"* c #563E1E",
"= c #5E4222",
"- c #6E4A26",
"; c #764E2A",
": c gray29",
"> c #565656",
", c gray40",
"< c #727272",
"1 c #7E7E7E",
"2 c #820000",
"3 c #8E0000",
"4 c #9A0000",
"5 c #A60000",
"6 c #CA0000",
"7 c #D60000",
"8 c #EE0000",
"9 c #9E4E00",
"0 c #B65600",
"q c #82522E",
"w c #8A5A32",
"e c #925E36",
"r c #9E623A",
"t c #A2663E",
"y c #CE6200",
"u c #EE7E1E",
"i c #AA6A42",
"p c #B67246",
"a c #BE7A4A",
"s c #CA7E4E",
"d c #F2B222",
"f c #D28252",
"g c #DE8A56",
"h c #EA8E5A",
"j c #F2965E",
"k c #FE9E62",
"l c #FEA672",
"z c #FEB282",
"x c None",
/* pixels */
"xxxxxxxxxxxxxxxxxxxxxxxxxxxxxxxxxxxxxxxxxxxxxxxxxxxxxxxxxxxxxxxxxxxxxxxxx",
"xxxxxxxxxxxxxxxxxxxxxxxxxxxxxxxxxxxxxxxxxxxxxxxxxxxxxxxxxxxxxxxxxxxxxxxxx",
"xxxxxxxxxxxxxxxxxxxxxxxxxxxxxxxxxxxxxxxxxxxxxxxxxxxxxxxxxxxxxxxxxxxxxxxxx",
"xxxxxxxxxxxxxxxxxxxxxxxxxxxxxxxxxxxxxxxxxxxxxxxxxxxxxxxxxxxxxxxxxxxxxxxxx",
"xxxxxxxxxxxxxxxxxxxxxxxxxxxxxxxxxxxxxxxxxxxxxxxxxxxxxxxxxxxxxxxxxxxxxxxxx",
"xxxxxxxxxxxxxxxxxxxxxxxxxxxxxxxxxxxxxxxxxxxxxxxxxxxxxxxxxxxxxxxxxxxxxxxxx",
"xxxxxxxxxxxxxxxxxxxxxxxxxxxxxxxxxxxxxxxxxxxxxxxxxxxxxxxxxxxxxxxxxxxxxxxxx",
"xxxxxxxxxxxxxxxxxxxxxxxxxxxxxxxxxxxxxxxxxxxxxxxxxxxxxxxxxxxxxxxxxxxxxxxxx",
"xxxxxxxxxxxxxxxxxxxxxxxxxxxxxxxxxxxxxxxxxxxxxxxxxxxxxxxxxxxxxxxxxxxxxxxxx",
"xxxxxxxxxxxxxxxxxxxxxxxxxxxxxxxxxxxxxxxxxxxxxxxxxxxxxxxxxxxxxxxxxxxxxxxxx",
"xxxxxxxxxxxxxxxxxxxxxxxxxxxxxxxxxxxxxxxxxxxxxxxxxxxxxxxxxxxxxxxxxxxxxxxxx",
"xxxxxxxxxxxxxxxxxxxxxxxxxxxxxxxxxxxxxxxxxxxxxxxxxxxxxxxxxxxxxxxxxxxxxxxxx",
"xxxxxxxxxxxxxxxxxxxxxxxxxxxxxxxxxxxxxxxxxxxxxxxxxxxxxxxxxxxxxxxxxxxxxxxxx",
"xxxxxxxxxxxxxxxxxxxxxxxxxxxxxxxxxxxxxxxxxxxxxxxxxxxxxxxxxxxxxxxxxxxxxxxxx",
"xxxxxxxxxxxxxxxxxxxxxxxxxxxxxxxxxxxxxxxxxxxxxxxxxxxxxxxxxxxxxxxxxxxxxxxxx",
"xxxxxxxxxxxxxxxxxxxxxxxxxxxxxxxxxxxxxxxxxxxxxxxxxxxxxxxxxxxxxxxxxxxxxxxxx",
"xxxxxxxxxxxxxxxxxxxxxxxxxxxxxxxxxxxxxxxxxxxxxxxxxxxxxxxxxxxxxxxxxxxxxxxxx",
"xxxxxxxxxxxxxxxxxxxxxxxxxxxxxxxxxxxxxxxxxxxxxxxxxxxxxxxxxxxxxxxxxxxxxxxxx",
"xxxxxxxxxxxxxxxxxxxxxxxxxxxxxxxxxxxxxxxxxxxxxxxxxxxxxxxxxxxxxxxxxxxxxxxxx",
"xxxxxxxxxxxxxxxxxxxxxxxxxxxxxxxxxxxxxxxxxxxxxxxxxxxxxxxxxxxxxxxxxxxxxxxxx",
"xxxxxxxxxxxxxxxxxxxxxxxxxxxxxxxxxxxxxxxxxxxxxxxxxxxxxxxxxxxxxxxxxxxxxxxxx",
"xxxxxxxxxxxxxxxxxxxxxxxxxxxxxxxxxxxxxxxxxxxxxxxxxxxxxxxxxxxxxxxxxxxxxxxxx",
"xxxxxxxxxxxxx@@@:::xxxxxxxxxxxxxxxxxxxxxxxxxxxxxxxxxxxxxxxxxxxxxxxxxxxxxx",
"xxxxxxxxxxx@@+++@::::xxxxxxxxxxxxxxxxxxxxxxxxxxxxxxxxxxxxxxxxxxxxxxxxxxxx",
"xxxxxxxxx@@@++O+++@:>>xxxxxxxxxxxxxxxxxxxxxxxxxxxxxxxxxxxxxxxxx4xxxxxxxxx",
"xxxxxxxx@@:@+OOOOO+::>:>:xxxxxxxxxxxxxxxxxxxxxxxxxxxxxxxxxxxxxxxxxxxxxxxx",
"xxxxxxxx@:>@+OOOOO+>>111,:xxxxxxxxxxxxxxxxxxxxxxxxxxx4xx5xxxxxxxxxxxxxxxx",
"xxxxxxx@:>>>@+OOO>>11@@OO@@xxxxxxxxxxxxxxxxxxxxxxxxxxxxxxxxxxxxxxxxxxxxxx",
"xxxxxxx@@:>>@++>>11@     O@xxxxxxxxxxxxxxxxxxxxxxxx5xxxxxxxxxxxxxxxxxxxxx",
"xxxxxxx@@:>>>>><1@        @xxxxxxxxxxxxxxxxxxxxx4xxxxxx2xxxxxxxxx4xxxxxxx",
"xxxxxxx@@@:>><<:          xxxxxxxxxxxxxxxxxxxxxxxxxxxxxxxxxx54xxxxxxxxxxx",
"xxxxxxx@@@:>,<>          @xxxxxxxxxxxxxxxxxxxxxxxxxx7xxxxxx525xxxxxxxxxxx",
"xxxxxxx@@@:>,:O          Oxxxxxxxxxxxxxxxxxxx55xx4xxxxxxxxx5xxxxxxxxxxxxx",
"xxxxxxx@@:>>:           Oxxxxxxxxxuddddduuyxxxxxxxxxxxxx7xxxxxxxxxxxxxxxx",
"xxxxxxx@@:>:+           xxxxxxxxudddddddduuyxx4xx75xxxxxxx4xxxxxxxxxxxxxx",
"xxxxxxx@:>>@          OOxxxxxxxudddddddddduuyxxx553xxxxxxxxxx5x65xxxxxxxx",
"xxxxxxx@:>,@           xxxxxxxxudddddddddduuy44x5xxxx4xxx4xxxx552xxxxxxxx",
"xxxxxxxx:>,O         Oxxxxxsggjjjgfhuuhhhjjjkkggaaexxx4x6xxxxxxxxxxxxxxxx",
"xxxxxxxx:>,O       OOxxxxiasggjggfffffghhhjklzzljfaexxxxxxxxxxxxxxxxxxxxx",
"xxxxxxxx:>,        xxxxxpiaasgggsfffffhjjjjjkllkjggaxxxxxxxxxxxxxxxxxxxxx",
"xxxxxxxx:>,OO  OOxxxxxpawiaafffffaaffhjjjjjgjjkjggghexxxxx4xxxxxxxxxxxxxx",
"xxxxxxxx@:>,OOOxxxxxxaatqiafffffspafgjjjjjgfsgjhsfjjhexxxxxxxxxxxxxxxxxxx",
"xxxxxxxxx@@@@xxxxxxxaat*qpffffgsppaghhhhhhgaasghsagjjhexxxxxxxxxxxxxxxxxx",
"xxxxxxxxxxxxxxxxxxxaat-&qfffggsp0###0gggggsaiappwaggjjfexxxxxxxxxxxxxxxxx",
"xxxxxxxxxxxxxxxxxxaat;=%qsfstrq#338730fffsspiewp=eaagjjfexxxxxxxxxxxxxxxx",
"xxxxxxxxxxxxxxxxxtaa;-*oqi;oO   #$55$#etaaptwqqr=-iiagjgfaxxxxxxxxxxxxxxx",
"xxxxxxxxxxxxxxxxxrtt-*%o              o;ettwq;=;&&-eifgjjfexxxxxxxxxxxxxx",
"xxxxxxxxxxxxxxxxxrr;=&oOO o;;rtr;=OO    o=;--=*ooo&qeifjjjgixxxxxxxxxxxxx",
"xxxxxxxxxxxxxxxxxrq;=raagggtgfffaaee;OO   o==&%oXXo=qqisjjsixxxxxxxxxxxxx",
"xxxxxxxxxxxxxxxxxrqtggllfgtgjllljjgfaaw;%  *%o%X==oo=qq;;rrrexxxxxxxxxxxx",
"xxxxxxxxxxxxxxxxxrtgllkfftstfjllljjjgaatw% Oooo=xx=oo=*;iiirexxxxxxxxxxxx",
"xxxxxxxxxxxxxxxxxtgjjfrrrkkftaaatteeetate;%  o=xxxx=ooo*eiirwexxxxxxxxxxx",
"xxxxxxxxxxxxxxxxxsafrrphhjklllkkkjgapqqweeq% Oxxxxxx==o=weerqexxxxxxxxxxx",
"xxxxxxxxxxxxxxxxtatrphhjklllllllkkjhgat==eqq& xx4xx4xxo=weee;exxxxxxxxxxx",
"xxxxxxxxxxxxxxxxttrphgjkkkghhhkkkkkjgatw=%&;=&$xxxxx4xo=;wwq;qxxxxxxxxxxx",
"xxxxxxxxxxxxxxxxtrtfhhhhhhptaafhjjjjfpiw;%X&==$3x3$xxxo=;qqq;qxxxxxxxxxxx",
"xxxxxxxxxxxxxxxxetpfggfssspqtaffhjjhapiew-%X&=&3$$xxxxoo==----xxxxxxxxxxx",
"xxxxxxxxxxxxxxxx%taggfsssat;qpffghhhfapie;*XX=&3xxxx$xx&--wwepxxxxxxxxxxx",
"xxxxxxxxxxxxxxx%;tfgggfsstqq%qsfhhjggfaptq*&XX&$$x3xxxxxwppppfxxxxxxxxxxx",
"xxxxxxxxxxxxxxx%0agjjhhfai;;%Xtshlkkhhattw*%oX=33xx4xxxxfflljfxxxxxxxxxxx",
"xxxxxxxxxxxxxxx%9fjjjhhfat;=%XXtahllkkfiww*%oX=$xxxx3xxxfrlljfxxxxxxxxxxx",
"xxxxxxxxxxxxxxx%=tllkjjfpe;=%XXXhaafgkkaw;*%X5x3x$xxxxxxtxlljfxxxxxxxxxxx",
"xxxxxxxxxxxxxxxx%rallkfaie;&oXo;ataaiiafr;*%Xxxxxxxxx4xxxxllfrxxxxxxxxxxx",
"xxxxxxxxxxxxxxxxxrrajgait;=%oX;jkkhffr;ww;*%Xxxxxxxxxxxxllffrxxxxxxxxxxxx",
"xxxxxxxxxxxxxxxxxkkgffite;=%o;jzzkkkjfiq&&&%Xxxxx3xxxxxxqqqexxxxxxxxxxxxx",
"xxxxxxxxxxxxxxxx;;;iai;====o+++@:>rjgfir&&oooxxxxxxxxxxxxxxxxxxxxxxxxxxxx",
"xxxxxxxxxxxxxxxsaarrrr;;=@@@++@:>@+oprr;*%oooxxxxxxxxxxxxxxxxxxxxxxxxxxxx",
"xxxxxxxxxxxxxxsjkkfr;**=@@@@@@:>@+O.oqq**%o%xxxxxxxxxxxxxxxxxxxxxxxxxxxxx",
"xxxxxxxxxxxxxsjkkkfae**@@@@@@@@@+O.  o-=%o%xxxxxxxxxxxxxxxxxxxxxxxxxxxxxx",
"xxxxxxxxxxxxsjkkkfaae;o@@@@@@@@@O.   o=%ooxxxxxxxxxxxxxxxxxxxxxxxxxxxxxxx",
"xxxxxxxxxxxsfjjjfaaae;o@@@@@@@@@.     *o%xxxxxxxxxxxxxxxxxxxxxxxxxxxxxxxx",
"xxxxxxxxxxrfewwtaatt;;o@@@@@@@@+.     %oxxxxxxxxxxxxxxxxxxxxxxxxxxxxxxxxx",
"xxxxxxxxxxrw%XX%*rte;*o+@@@@@+...    oxxxxxxxxxxxxxxxxxxxxxxxxxxxxxxxxxxx",
"xxxxxxxxx>>>>>:+XX;;**oo@@@+..+@+.   xxxxxxxxxxxxxxxxxxxxxxxxxxxxxxxxxxxx",
"xxxxxxx>>>>>>:@+. X**ooo++..+@@@@.   xxxxxxxxxxxxxxxxxxxxxxxxxxxxxxxxxxxx",
"xxxx@@@:>>>>:@@+.  XoXX%o.+@@@@@@@.  xxxxxxxxxxxxxxxxxxxxxxxxxxxxxxxxxxxx",
"xxx@@@@@:>::@@++.   XX%%o+@@@@@@@@.  xxxxxxxxxxxxxxxxxxxxxxxxxxxxxxxxxxxx",
"xx@@@@@@@@:@@+OO    %%**xx+@@@@@@@@  xxxxxxxxxxxxxxxxxxxxxxxxxxxxxxxxxxxx",
"xx@@@@@@@@:+@O.    O**xxxx+@@@@@@@@. xxxxxxxxxxxxxxxxxxxxxxxxxxxxxxxxxxxx",
"xx+@@@@@@@@.@O     Oxxxxxxx+@@@@@@+. xxxxxxxxxxxxxxxxxxxxxxxxxxxxxxxxxxxx",
"xxx@@@@@@@+.+O    Oxxxxxxxx+@@@@@++. xxxxxxxxxxxxxxxxxxxxxxxxxxxxxxxxxxxx",
"xxx@@@@@+++ OO   Oxxxxxxxxxx+++++++. xxxxxxxxxxxxxxxxxxxxxxxxxxxxxxxxxxxx",
"xxx+@++++++  O  Oxxxxxxxxxxxx++++++. xxxxxxxxxxxxxxxxxxxxxxxxxxxxxxxxxxxx",
"xxxx+++@@@@O    xxxxxxxxxxxxxx+++++..xxxxxxxxxxxxxxxxxxxxxxxxxxxxxxxxxxxx",
"xxxx@@@@@@@@    xxxxxxxxxxxxxxx++++.xxxxxxxxxxxxxxxxxxxxxxxxxxxxxxxxxxxxx",
"xxxx+@@@@@@@O   xxxxxxxxxxxxxxxxxxxxxxxxxxxxxxxxxxxxxxxxxxxxxxxxxxxxxxxxx",
"xxxxx@@@@@@@@   xxxxxxxxxxxxxxxxxxxxxxxxxxxxxxxxxxxxxxxxxxxxxxxxxxxxxxxxx",
"xxxxx@@@@@@@@O  xxxxxxxxxxxxxxxxxxxxxxxxxxxxxxxxxxxxxxxxxxxxxxxxxxxxxxxxx",
"xxxxx+@@@@@@@+  xxxxxxxxxxxxxxxxxxxxxxxxxxxxxxxxxxxxxxxxxxxxxxxxxxxxxxxxx",
"xxxxxx+@@@@+++  xxxxxxxxxxxxxxxxxxxxxxxxxxxxxxxxxxxxxxxxxxxxxxxxxxxxxxxxx",
"xxxxxxx+++++++  xxxxxxxxxxxxxxxxxxxxxxxxxxxxxxxxxxxxxxxxxxxxxxxxxxxxxxxxx",
"xxxxxxxx++++++.xxxxxxxxxxxxxxxxxxxxxxxxxxxxxxxxxxxxxxxxxxxxxxxxxxxxxxxxxx",
"xxxxxxxxx+++++xxxxxxxxxxxxxxxxxxxxxxxxxxxxxxxxxxxxxxxxxxxxxxxxxxxxxxxxxxx",
"xxxxxxxxxxxxxxxxxxxxxxxxxxxxxxxxxxxxxxxxxxxxxxxxxxxxxxxxxxxxxxxxxxxxxxxxx",
"xxxxxxxxxxxxxxxxxxxxxxxxxxxxxxxxxxxxxxxxxxxxxxxxxxxxxxxxxxxxxxxxxxxxxxxxx",
"xxxxxxxxxxxxxxxxxxxxxxxxxxxxxxxxxxxxxxxxxxxxxxxxxxxxxxxxxxxxxxxxxxxxxxxxx",
"xxxxxxxxxxxxxxxxxxxxxxxxxxxxxxxxxxxxxxxxxxxxxxxxxxxxxxxxxxxxxxxxxxxxxxxxx",
"xxxxxxxxxxxxxxxxxxxxxxxxxxxxxxxxxxxxxxxxxxxxxxxxxxxxxxxxxxxxxxxxxxxxxxxxx",
"xxxxxxxxxxxxxxxxxxxxxxxxxxxxxxxxxxxxxxxxxxxxxxxxxxxxxxxxxxxxxxxxxxxxxxxxx",
"xxxxxxxxxxxxxxxxxxxxxxxxxxxxxxxxxxxxxxxxxxxxxxxxxxxxxxxxxxxxxxxxxxxxxxxxx"
};
