/* XPM */
static char *result[] = {
/* columns rows colors chars-per-pixel */
"73 100 38 1 ",
"  c black",
". c #1E1E1E",
"X c #2A220E",
"o c #3A2E16",
"O c #222222",
"+ c gray18",
"@ c #3A3A3A",
"# c #42321A",
"$ c #4A3A1A",
"% c #563E1E",
"& c #5E4222",
"* c #6E4A26",
"= c #764E2A",
"- c gray29",
"; c #565656",
": c gray40",
"> c #727272",
", c #7E7E7E",
"< c #820000",
"1 c #8E0000",
"2 c #9A0000",
"3 c #BE0000",
"4 c #D60000",
"5 c #82522E",
"6 c #8A5A32",
"7 c #925E36",
"8 c #9E623A",
"9 c #A2663E",
"0 c #AA6A42",
"q c #B67246",
"w c #BE7A4A",
"e c #CA7E4E",
"r c #D28252",
"t c #DE8A56",
"y c #EA8E5A",
"u c #F2965E",
"i c #FE9E62",
"p c None",
/* pixels */
"ppppppppppppppppppppppppppppppppppppppppppppppppppppppppppppppppppppppppp",
"ppppppppppppppppppppppppppppppppppppppppppppppppppppppppppppppppppppppppp",
"ppppppppppppppppppppppppppppppppppppppppppppppppppppppppppppppppppppppppp",
"ppppppppppppppppppppppppppppppppppppppppppppppppppppppppppppppppppppppppp",
"ppppppppppppppppppppppppppppppppppppppppppppppppppppppppppppppppppppppppp",
"ppppppppppppppppppppppppppppppppppppppppppppppppppppppppppppppppppppppppp",
"ppppppppppppppppppppppppppppppppppppppppppppppppppppppppppppppppppppppppp",
"ppppppppppppppppppppppppppppppppppppppppppppppppppppppppppppppppppppppppp",
"ppppppppppppppppppppppppppppppppppppppppppppppppppppppppppppppppppppppppp",
"ppppppppppppppppppppppppppppppppppppppppppppppppppppppppppppppppppppppppp",
"ppppppppppppppppppppppppppppppppppppppppppppppppppppppppppppppppppppppppp",
"ppppppppppppppppppppppppppppppppppppppppppppppppppppppppppppppppppppppppp",
"ppppppppppppppppppppppppppppppppppppppppppppppppppppppppppppppppppppppppp",
"ppppppppppppppppppppppppppppppppppppppppppppppppppppppppppppppppppppppppp",
"ppppppppppppppppppppppppppppppppppppppppppppppppppppppppppppppppppppppppp",
"ppppppppppppppppppppppppppppppppppppppppppppppppppppppppppppppppppppppppp",
"ppppppppppppppppppppppppppppppppppppppppppppppppppppppppppppppppppppppppp",
"ppppppppppppppppppppppppppppppppppppppppppppppppppppppppppppppppppppppppp",
"ppppppppppppppppppppppppppppppppppppppppppppppppppppppppppppppppppppppppp",
"ppppppppppppppppppppppppppppppppppppppppppppppppppppppppppppppppppppppppp",
"ppppppppppppppppppppppppppppppppppppppppppppppppppppppppppppppppppppppppp",
"ppppppppppppppppppppppppppppppppppppppppppppppppppppppppppppppppppppppppp",
"ppppppppppppppppppppppppppppppppppppppppppppppppppppppppppppppppppppppppp",
"ppppppppppppppppppppppppppppppppppppppppppppppppppppppppppppppppppppppppp",
"ppppppppppppppppppppppppppppppppppppppppppppppppppppppppppppppppppppppppp",
"ppppppppppppppppppppppppppppppppppppppppppppppppppppppppppppppppppppppppp",
"ppppppppppppppppppppppppppppppppppppppppppppppppppppppppppppppppppppppppp",
"ppppppppppppppppppppppppppppppppppppppppppppppppppppppppppppppppppppppppp",
"ppppppppppppppppppppppppppppppppppppppppppppppppppppppppppppppppppppppppp",
"ppppppppppppppppppppppppppppppppppppppppppppppppppppppppppppppppppppppppp",
"ppppppppppppppppppppppppppppppppppppppppppppppppppppppppppppppppppppppppp",
"ppppppppppppppppppppppppppppppppppppppppppppppppppppppppppppppppppppppppp",
"ppppppppppppppppppppppppppppppppppppppppppppppppppppppppppppppppppppppppp",
"ppppppppppppppppppppppppppppppppppppppppppppppppppppppppppppppppppppppppp",
"ppppppppppppppppppppppppppppppppppppppppppppppppppppppppppppppppppppppppp",
"ppppppppppppppppppppppppppppppppppppppppppppppppppppppppppppppppppppppppp",
"ppppppppppppppppppppppppppppppppppppppppppppppppppppppppppppppppppppppppp",
"ppppppppppppppppppppppppppppppppppppppppppppppppppppppppppppppppppppppppp",
"ppppppppppppppppppppppppppppppppppppppppppppppppppppppppppppppppppppppppp",
"ppppppppp@@@---ppppppppppppppppppppppppppppppppppppp3ppppp2pppppppppp44pp",
"ppppppp@@+++@----ppppppppppppppppppppppppppppppppppppppppppppppppppp441pp",
"ppppp@@@++O+++@-;;pppppppppppppppppppppppppppppppppppppppppppppppppp4pppp",
"pppp@@-@+OOOOO+--;-;-pppppppppppppppppppppppppppppppppppppppppp2ppppppppp",
"pppp@-;@+OOOOO+;;,,,:-pppppppppppppppppppppppppppppppp3pppppppppppppppppp",
"ppp@-;;;@+OOO;;,,@@OO@@pppppppppppppppppppppppppppppppppppppppppppppppppp",
"ppp@@-;;@++;;,,@     O@ppppppppppppppppppppppppppppp2pppppppppppppppppppp",
"ppp@@-;;;;;>,@        @pppppppppppppppppppppppppp3pppppppppp3pppp2pp2pppp",
"ppp@@@-;;>>-          ppppppppppppppppppppppppppppppppppp2ppppppppppppppp",
"ppp@@@-;:>;          @ppppppppppppppppppppppppppppppppppppppppppppppppppp",
"ppp@@@-;:-O          Oppppppppppppppppppppppppppppppppppppp4pp4pppppppppp",
"ppp@@-;;-           Opppppppppppppppppppppppppppppp<ppppppppppppppp4pp2pp",
"ppp@@-;-+           ppppppppppppppppppppppppppppppppppppppppppppppppppppp",
"ppp@-;;@          OOpppppppppppppppppppppppppppppppppp2pp2pppp2pp3ppppppp",
"ppp@-;:@           ppppppppppppprrrr8866688&ppppppppppppppppppppppppppppp",
"pppp-;:O         Oppppppppppppr8=%$###=8iiyyrpppppppp4ppppppppppppppppppp",
"pppp-;:O       OOpppppppppppr8==%$$XX=yiiyyeyr8tttteeppp<ppp4<ppppp<<pppp",
"pppp-;:        pppppppppppre=%%=8tuue88iiiyteyr&ryytewwpppp<<<ppppp2<pppp",
"pppp-;:OO  OOppppppppppprr9777wtuuuuut8qiiiytee&&ryyreeeepp<pppppp<<ppppp",
"pppp@-;:OOOppppppppppppr7=7wiitrw8wreye99qiiyte6 &rrreeeew=ppp2pppppppppp",
"ppppp@@@@pppppppppppppr=7wiiitww8=8wyyyye9qiyrr8% &wweeeww0=ppppppppppppp",
"ppppppppppppppppppppppe=7iiitw88=o8yyyyyye9qrrr8=  wweeww006=pppp2ppppppp",
"ppppppppppppppppppppppe=0-------oo8iiuuyyye7qreq6  &000000086=ppppppppppp",
"ppppppppppppppppppppppe0@@@@----@@@8iiiiyyy08rwq6   0000000086=pppppppppp",
"ppppppppppppppppppppptt@@@@@@;@+++++8iiiiyyq8eq66   79908600986pppppppppp",
"pppppppppppppppppppptii@@@@@@@;@+...+rrrrrrq8wq66   79986500098=ppppppppp",
"ppppppppppppppppppptiii@@@@@@@@@+    69wwwww5q9==   7776*&5800986pppppppp",
"ppppppppppppppppppqiiii@@@@@@@@@+     6qqqq9587=%   ====%#&800086=ppppppp",
"ppppppppppppp=9eir90qtt@@@@@@@+OO     =6999*585=X  #==*###&688876==pppppp",
"ppppppppppp=99eiiir990q@@@+OOOO+@O    =777*%=5=oX  $####XX&=68876==pppppp",
"ppppppp;;;-++%=9iitrqqq06OO++@@@@@    ===*%#=*#XX XXXXXXXXo&=6887===ppppp",
"ppppO++-;-@+++%=ttteq0006++@@@@@@@    **%#o&%#XX XXXXX#%#Xo$&5687===ppppp",
"ppp@@-;@+++++OO%9rwqq0006=@@@@@@@@O  &&#oo$##XXo Xooooo$$&X$%$%876===pppp",
"pp@@@@@;@+OOOOOO=qq00006==@@@@@@@@+  $$ppp$XX$$2p<o$&&pppp&X$$%876===pppp",
"pp@@@@@@-@OOOO   887766==%o@@@@@+++  ppppp$$$p22<22<p2ppppp=XX%666===pppp",
"pp@@@@@@@@+O     =777===%oX@@++++++  pppppppppp22p222ppppppp=X%%66===pppp",
"pp@@@@@@@@+      %====%$oXX++++++++  ppppppppppp<22p22ppppppp=X%76====ppp",
"pp@@@@+OOOOO     %%%ooooXXXX+++++++  pppppppppppp<p2pppppppppp=X%6====ppp",
"pppOOOO+++++     ####XXX#%%%%++++++ pppppppppppp<p2pp<ppppppppp=%75===ppp",
"ppp++++@@@@@    pp#####%%778=%+++++ppppppppppppppp<pp<ppppppppp=%75===ppp",
"ppp+@@@@@@@@O  pppppppp7irrq=%%+++ppppppppppppppppppppppppppppp=%%555=ppp",
"ppp+@@@@@@@@@  pppppppp7irrq=%%pppppppppppppppppppppppppppppppp==%%55=ppp",
"ppp++@@@@@+++  pppppppppp9q*%%%ppppppppppppppppppppppppppppppppoooooopppp",
"ppp++++++++++  pppppppppp999*pppppppppppppppppppppp<ppppppppppp*****opppp",
"pppp+++++++++  pppppppppptw666pppppppppppppppppppppppppppppppppee88==pppp",
"ppppp++++++++  pppppppppptw66qqppppppppppppppppppppppppppppppppuee88=pppp",
"pppppp+++++++ pppppppppppew9%*6ppppppppppppppppppppppppppppppppuue785pppp",
"ppppppp+++++ ppppppppppppew5**6ppppppppppppppppppppppppppppppupuee785pppp",
"pppppppp++++ppppppppppppppqq599ppppppppppppppppppppppppppppppeuee777ppppp",
"pppppppppppppppppppppppppppqq99pppppppppppppppppppppppppppppppe9955pppppp",
"ppppppppppppppppppppppppppppppppppppppppppppppppppppppppppppppppppppppppp",
"ppppppppppppppppppppppppppppppppppppppppppppppppppppppppppppppppppppppppp",
"ppppppppppppppppppppppppppppppppppppppppppppppppppppppppppppppppppppppppp",
"ppppppppppppppppppppppppppppppppppppppppppppppppppppppppppppppppppppppppp",
"ppppppppppppppppppppppppppppppppppppppppppppppppppppppppppppppppppppppppp",
"ppppppppppppppppppppppppppppppppppppppppppppppppppppppppppppppppppppppppp",
"ppppppppppppppppppppppppppppppppppppppppppppppppppppppppppppppppppppppppp",
"ppppppppppppppppppppppppppppppppppppppppppppppppppppppppppppppppppppppppp",
"ppppppppppppppppppppppppppppppppppppppppppppppppppppppppppppppppppppppppp",
"ppppppppppppppppppppppppppppppppppppppppppppppppppppppppppppppppppppppppp",
"ppppppppppppppppppppppppppppppppppppppppppppppppppppppppppppppppppppppppp"
};
