/* XPM */
static char *result[] = {
/* columns rows colors chars-per-pixel */
"85 100 50 1 ",
"  c black",
". c #2A0000",
"X c #360000",
"o c #2A220E",
"O c #3A2E16",
"+ c #222222",
"@ c gray18",
"# c #3A3A3A",
"$ c #420000",
"% c #4A0000",
"& c #620000",
"* c #6E0000",
"= c #760000",
"- c #42321A",
"; c #4A3A1A",
": c #563E1E",
"> c #5E4222",
", c #6E4A26",
"< c #764E2A",
"1 c gray29",
"2 c #565656",
"3 c gray40",
"4 c #727272",
"5 c #820000",
"6 c #9A0000",
"7 c #B20000",
"8 c #BE0000",
"9 c #9E4E00",
"0 c #82522E",
"q c #8A5A32",
"w c #925E36",
"e c #9E623A",
"r c #A2663E",
"t c #E66E00",
"y c #FE7A00",
"u c #AA6A42",
"i c #B67246",
"p c #BE7A4A",
"a c #CA7E4E",
"s c #FEFE00",
"d c #D28252",
"f c #DE8A56",
"g c #FE9A42",
"h c #EA8E5A",
"j c #F2965E",
"k c #FEAA5E",
"l c #FE9E62",
"z c #FEA672",
"x c #FEB282",
"c c None",
/* pixels */
"ccccccccccccccccccccccccccccccccccccccccccccccccccccccccccccccccccccccccccccccccccccc",
"ccccccccccccccccccccccccccccccccccccccccccccccccccccccccccccccccccccccccccccccccccccc",
"ccccccccccccccccccccccccccccccccccccccccccccccccccccccccccccccccccccccccccccccccccccc",
"ccccccccccccccccccccccccccccccccccccccccccccccccccccccccccccccccccccccccccccccccccccc",
"ccccccccccccccccccccccccccccccccccccccccccccccccccccccccccccccccccccccccccccccccccccc",
"ccccccccccccccccccccccccccccccccccccccccccccccccccccccccccccccccccccccccccccccccccccc",
"ccccccccccccccccccccccccccccccccccccccccccccccccccccccccccccccccccccccccccccccccccccc",
"ccccccccccccccccccccccccccccccccccccccccccccccccccccccccccccccccccccccccccccccccccccc",
"ccccccccccccccccccccccccccccccccccccccccccccccccccccccccccccccccccccccccccccccccccccc",
"ccccccccccccccccccccccccccccccccccccccccccccccccccccccccccccccccccccccccccccccccccccc",
"ccccccccccccccccccccccccccccccccccccccccccccccccccccccccccccccccccccccccccccccccccccc",
"ccccccccccccccccccccccccccccccccccccccccccccccccccccccccccccccccccccccccccccccccccccc",
"ccccccccccccccccccccccccccccccccccccccccccccccccccccccccccccccccccccccccccccccccccccc",
"ccccccccccccccccccccccccccccccccccccccccccccccccccccccccccccccccccccccccccccccccccccc",
"ccccccccccccccccccccccccccccccccccccccccccccccccccccccccccccccccccccccccccccccccccccc",
"ccccccccccccccccccccccccccccccccccccccccccccccccccccccccccccccccccccccccccccccccccccc",
"ccccccccccccccccccccccccccccccccccccccccccccccccccccccccccccccccccccccccccccccccccccc",
"ccccccccccccccccccccccccccccccccccccccccccccccccccccccccccccccccccccccccccccccccccccc",
"ccccccccccccccccccccccccccccccccccccccccccccccccccccccccccccccccccccccccccccccccccccc",
"ccccccccccccccccccccccccccccccccccccccccccccccccccccccccccccccccccccccccccccccccccccc",
"ccccccccccccccccccccccccccccccccccccccccccccccccccccccccccccccccccccccccccccccccccccc",
"ccccccccccccccccccccccccccccccccccccccccccccccccccccccccccccccccccccccccccccccccccccc",
"ccccccccccccccccccccccccccccccccccccccccccccccccccccccccccccccccccccccccccccccccccccc",
"ccccccccccccccccccccccccccccccccccccccccccccccccccccccccccccccccccccccccccccccccccccc",
"ccccccccccccccccccccccccccccccccccccccccccccccccccccccccccccccccccccccccccccccccccccc",
"ccccccccccccccccccccccccccccccccccccccccccccccccccccccccccccccccccccccccccccccccccccc",
"ccccccccccccccccccccccccccccccccccccccccccccccccccccccccccccccccccccccccccccccccccccc",
"ccccccccccccccccccccccccccccccccccccccccccccccccccccccccccccccccccccccccccccccccccccc",
"ccccccccccccccccccccccccccccccccccccccccccccccccccccccccccccccccccccccccccccccccccccc",
"ccccccccccccccccccccccccccccccccccccccccccccccccccccccccccccccccccccccccccccccccccccc",
"ccccccccccccccccccccccccccccccccccccccccccccccccccccccccccccccccccccccccccccccccccccc",
"ccccccccccccccccccccccccccccccccccccccccccccccccccccccccccccccccccccccccccccccccccccc",
"ccccccccccccccccccccccccccccccccccccccccccccccccccccccccccccccccccccccccccccccccccccc",
"ccccccccccccccccccccccccccccccccccccccccccccccccccccccccccccccccccccccccccccccccccccc",
"ccccccccccccccccccccccccccccccccccccccccccccccccccccccccccccccccccccccccccccccccccccc",
"ccccccccccccccccccccccccccccccccccccccccccccccccccccccccccccccccccccccccccccccccccccc",
"ccccccccccccccccccccccccccccccccccccccccccccccccccccccccccccccccccccccccccccccccccccc",
"ccccccccccccccccccccccccccccccccccccccccccccccccccccccccccccccccccccccccccccccccccccc",
"ccccccccccccccccccccccccccccccccccccccccccccccccccccccccccccccccccccccccccccccccccccc",
"ccccccccccccccccccccccccccccccccccccccccccccccccccccccccccccccccccccccccccccccccccccc",
"ccccccccccccccccccccccccccccccccccccccccccccccccccccccccccccccccccccccccccccccccccccc",
"ccccccccccccccccccccccccccccccccccccccccccccccccccccccccccccccccccccccccccccccccccccc",
"ccccccccccccccccccccccccccccccccccccccccccccccccccccccccccccccccccccccccccccccccccccc",
"ccccccccccccccccccccccccccccccccccccccccccccccccccccccccccccccccccccccccccccccccccccc",
"ccccccccccccccccccccccccccccccccccccccccccccccccccccccccccccccccccccccccccccccccccccc",
"ccccccccccccccccccccccccccccccccccccccccccccccccccccccccccccccccccccccccccccccccccccc",
"ccccccccccccccccccccccccccccccccccccccccccccccccccccccccccccccccccccccccccccccccccccc",
"ccccccccccccccccccccccccccccccccccccccccccccccccccccccccccccccccccccccccccccccccccccc",
"ccccccccccccccccccccccccccccccccccccccccccccccccccccccccccccccccccccccccccccccccccccc",
"ccccccccccccccccccccccccccccccccccccccccccccccccccccccccccccccccccccccccccccccccccccc",
"ccccccccccccccccccccccccccccccccccccccccccccccccccccccccccccccccccccccccccccccccccccc",
"ccccccccccccccccccccccccccccccccccccccccccccccccccccccccccccccccccccccccccccccccccccc",
"ccccccccccccccccccccccccccccccccccccccccccccccccccccccccccccccccccccccccccccccccccccc",
"ccccccccccccccccccccccccccccccccccccccccccccccccccccccccccccccccccccccccccccccccccccc",
"ccccccccccccccccccccccccccccccccccccccccccccccccccccccccccccccccccccccccccccccccccccc",
"ccccccccccccccccccccccccccccccccccccccccccccccccccccccccccccccccccccccccccccccccccccc",
"ccccccccccccccccccccccccccccccccccccccccccccccccccccccccccccccccccccccccccccccccccccc",
"ccccccccccccccccccccccccccccccccccccccccccccccccccccccccccccccccccccccccccccccccccccc",
"ccccccccccccccccccccccccccccccccccccccccccccccccccccccccccccccccccccccccccccccccccccc",
"ccccccccccccccccccccccccccccccccccccccccccccccccccccccccccccccccccccccccccccccccccccc",
"ccccccccccccccccccccccccccccccccccccccccccccccccccccccccccccccccccccccccccccccccccccc",
"ccccccccccccccccccccccccccccccccccccccccccccccccccccccccccccccccccccccccccccccccccccc",
"ccccccccccccccccccccccccccccccccccccccccccccccccccccccccccccccccccccccccccccccccccccc",
"ccccccccccccccccccccccccccccccccccccccccccccccccccccccccccccccccccccccccccccccccccccc",
"ccccccccccccccccccccccccccccccccccccccccccccccccccccccccccccccccccccccccccccccccccccc",
"ccccccccccccccccccccccccccccccccccccccccccccccccccccccccccccccccccccccccccccccccccccc",
"ccccccccccccccccccccccccccccccccccccccccccccccccccccccccccccccccccccccccccccccccccccc",
"ccccccccccccccccccccccccccccccccccccccccccccccccccccccccccccccccccccccccccccccccccccc",
"ccccccccccccccccccccccccccccccccccccccccccccccccccccccccccccccccccccccccccccccccccccc",
"cccccccccccccccccccccccccc##########ccccccccccccccccccccccccccccccccccccccccccccccccc",
"cccccccccccccccccccccccc##11##+#1122##ccccccccccccccccccccccccccccccccccccccccccccccc",
"ccccccccccccccccccccccc###2##++++@#12##cccccccccccccccccccccccccccccccccccccccccccccc",
"cccccccccccccccccccccc###12##+++++@#12#cccccccccccccccccccccccccccccccccccccccccccccc",
"cccccccccccccccccccccc###12##+++++@#12#cccccccccccccccccccccccccccccccccccccccccccccc",
"ccccccccccccccccccccc#4@#12##++++++#121ykksssssgtcccccccccccccccccccccccccccccccccccc",
"ccccccccccccccccccccc#+@#112#@@@@@@@11ykksssssssgtycccccccccccccccccccccccccccccccccc",
"cccccrphzjjdcccccclll#####1122qdjzzzzzzzz9====zzlytyccccccccccccccccccccccccccccccccc",
"ccccrqppxxjprdddlldfl###11qllhhhhjzzzzz9.=777=..99jfjdccccccccccccccccccccccccccccccc",
"cccrquraaaeqrallljljhqdfjhhappuee>>><ooooooo---==59jddppacccccccccccccccccccccccccccc",
"cccququqeqq>>0pirrhirljhhapuuahllllzzzllllzzzffuo==*ewphhjhhhhllllllccccccccccccccccc",
"ccccqqqcccrq;:0000rw0aiiuuiffhddppdfffrpfzzzzzzlfu:=*0rphhhhllllllzzzjjllljcccccccccc",
"ccccccccccccc:::::00-rwwwudjjzzzzzfpprqqpfappphhffw:=*0iffhhfhafhhhlhddddfjrlprprprcc",
"ccccccccccccccccc::--@@@,llzzzjfahhhhppdhffarrupdda0o%5qiparaaaadqihiiiiiadrhzzzzphpc",
"cccccccccccccccccc@@@@@@@@,lljdiiahhaiiaddar<<qrpaar-%*&,ee,<rrar>,rqqqqqruwhzzqqqhpc",
"cccccccccccccc2###133#+++++,ifireeiiree-+++@@++<<iir:%5&::::><<wq:,,<<<<<<<,rpp;;phpc",
"ccccccccccccc2+######3#+++++,irqq0rre,-  +@##@+@><<0,%%&O-:-:::::::::::::::,qqqcccpcc",
"cccccccccccc##@+######1+++   rr00><,:-       +1#@::,,%%&XO---::::cccccccccccccccccccc",
"ccccc555666####@+#####1++    r0,>O;;o    +@#+ +1#@@--%5&XO---:ccccccccccccccccccccccc",
"885ccccccc@#####@+#####++    0,:-oooo   +@####+  +@++%%&X.OXXXXcccccccccccccccccccccc",
"ccccc85cc@@@#####@+####+    +,:-ooooo  +@#######+  +++$*%%$$&&&XXcccccccccccccccccccc",
"cccccccc@@@@@#####@+#++     :-OoooOOO  +@######+@##++++$&&&&&&&&&XXXccccccccccccccccc",
"ccccccc@@@@@@@####++      +-OoooOOOcc  @######+@####++++X&&&&&&&%%ccccccccccccccccccc",
"ccccccc@@@@@@@@##+      +OoooOOOcccccc @#####+@######+++ %%%%%ccccccccccccccccccccccc",
"cccccc@@@@@@@@@@+      ++OOOOcccccccccc@#### +@######@@+  ccccccccccccccccccccccccccc",
"cccccc@@@@@@@++     ccccccccccccccccccccc## ++@#####@@@@+ ccccccccccccccccccccccccccc",
"ccccccc@@@@++     cccccccccccccccccccccccccc++@####@@@@@@ ccccccccccccccccccccccccccc",
"cccccccc+++    ccccccccccccccccccccccccccccccc@###@@@@@@@cccccccccccccccccccccccccccc",
"cccccccccccccccccccccccccccccccccccccccccccccccc#@@@@@@@ccccccccccccccccccccccccccccc",
"ccccccccccccccccccccccccccccccccccccccccccccccccccccccccccccccccccccccccccccccccccccc",
"ccccccccccccccccccccccccccccccccccccccccccccccccccccccccccccccccccccccccccccccccccccc"
};
