/* XPM */
static char *result[] = {
/* columns rows colors chars-per-pixel */
"58 100 46 1 ",
"  c black",
". c #2A220E",
"X c #363600",
"o c #3A2E16",
"O c #222222",
"+ c gray18",
"@ c #3A3A3A",
"# c #42321A",
"$ c #4A3A1A",
"% c #563E1E",
"& c #424200",
"* c #4E4E00",
"= c #6A6A00",
"- c #5E4222",
"; c #6E4A26",
": c #764E2A",
"> c gray29",
", c #565656",
"< c #5A5A5A",
"1 c gray40",
"2 c #727272",
"3 c #7E7E7E",
"4 c #82522E",
"5 c #8A5A32",
"6 c #925E36",
"7 c #9E623A",
"8 c #A2663E",
"9 c #AA6A42",
"0 c #B67246",
"q c #BE7A4A",
"w c #CA7E4E",
"e c #D28252",
"r c #DE8A56",
"t c #EA8E5A",
"y c #F2965E",
"u c #FE9E62",
"i c #FEA672",
"p c #0000FE",
"a c #007ECE",
"s c #9A9A9A",
"d c #B6B6B6",
"f c #FEB282",
"g c #FEBA92",
"h c #D2D2D2",
"j c gray87",
"k c None",
/* pixels */
"kkkkkkkkkkkkkkkkkkkkkkkkkkkkkkkkkkkkkkkkkkkkkkkkkkkkkkkkkk",
"kkkkkkkkkkkkkkkkkkkkkkkkkkkkkkkkkkkkkkkkkkkkkkkkkkkkkkkkkk",
"kkkkkkkkkkkkkkkkkkkkkkkkkkkkkkkkkkkkkkkkkkkkkkkkkkkkkkkkkk",
"kkkkkkkkkkkkkkkkkkkkkkkkkkkkkkkkkkkkkkkkkkkkkkkkkkkkkkkkkk",
"kkkkkkkkkkkkkkkkkkkkkkkkk@@@@@@@@kkkkkkkkkkkkkkkkkkkkkkkkk",
"kkkkkkkkkkkkkkkkkkkkkkk@@>>@OO@>>@@kkkkkkkkkkkkkkkkkkkkkkk",
"kkkkkkkkkkkkkkkkkkkkkk@@>@+OOOO+@>@@kkkkkkkkkkkkkkkkkkkkkk",
"kkkkkkkkkkkkkkkkkkkkk@@>@+OOOOOO+@>@@kkkkkkkkkkkkkkkkkkkkk",
"kkkkkkkkkkkkkkkkkkkkk,>,@+OOOOOO+@,>,kkkkkkkkkkkkkkkkkkkkk",
"kkkkkkkkkkkkkkkkkkkkk@>,@+@>>>>@+@,>@kkkkkkkkkkkkkkkkkkkkk",
"kkkkkkkkkkkkkkkkkkkkk@>,,,111111,,,>@kkkkkkkkkkkkkkkkkkkkk",
"kkkkkkkkkkkkkkkkkkkk@>,112333333211,>@kkkkkkkkkkkkkkkkkkkk",
"kkkkkkkkkkkkkkkkkkkk>,@            @,>kkkkkkkkkkkkkkkkkkkk",
"kkkkkkkkkkkkkkkkkkkk,@X&oooooooooo&X@,kkkkkkkkkkkkkkkkkkkk",
"kkkkkkkkkkkkkkkkkkk@+ &*X*==--==*X*& +@kkkkkkkkkkkkkkkkkkk",
"kkkkkkkkkkkkkkkkkkkO  5=$apo55opa$=5  Okkkkkkkkkkkkkkkkkkk",
"kkkkkkkkkkkkkkkkkkk   w8864yiiw4688w   kkkkkkkkkkkkkkkkkkk",
"kkkkkkkkkkkkkkkkkkk   5quggqggqggtq5   kkkkkkkkkkkkkkkkkkk",
"kkkkkkkkkkkkkkkkkkkk   8tir5%%5rit8   kkkkkkkkkkkkkkkkkkkk",
"kkkkkkkkkkkkkkkkkkkkk  6eiyueeuyie6  kkkkkkkkkkkkkkkkkkkkk",
"kkkkkkkkkkkkkkkkkkkkkkk:eiq%55%qie:kkkkkkkkkkkkkkkkkkkkkkk",
"kkkkkkkkkkkkkkkkkkkkkkk-qiiugguiiq-kkkkkkkkkkkkkkkkkkkkkkk",
"kkkkkkkkkkkkkkkkkkkkkk o9tir88rit9o kkkkkkkkkkkkkkkkkkkkkk",
"kkkkkkkkkkkkkkkkkkkkkk  o8yffffy8o  kkkkkkkkkkkkkkkkkkkkkk",
"kkkkkkkkkkkkkkkkkkkk88   o:::::4o   88kkkkkkkkkkkkkkkkkkkk",
"kkkkkkkkkkkkkkkkkk8rw8    .%66%.    8wr8kkkkkkkkkkkkkkkkkk",
"kkkkkkkkkkkkkkk6ryyrw7o  <@    @<  o7wryyr6kkkkkkkkkkkkkkk",
"kkkkkkkkkkkkkwrruuuurq7$ @< ## <@ $7qruuuurrwkkkkkkkkkkkkk",
"kkkkkkkkkkkkruuuuuuuuue7;$ $66$ $;7euuuuuuuuurkkkkkkkkkkkk",
"kkkkkkkkkkkruuuuyyyyutrw8;;6886;;8wrtuyyyyuuuurkkkkkkkkkkk",
"kkkkkkkkkkruuuywtrtturrrwqq7;r7qqwrtd@dyrtwyuuurkkkkkkkkkk",
"kkkkkkkkkkuyyytwrrqryerwerrwqtwrrewdsOs2rrwtyyyukkkkkkkkkk",
"kkkkkkkkk9utttt9r0eryereerrwqtwrree@OO  0r9ttttu9kkkkkkkkk",
"kkkkkkkkk9uyqww688000rrew0e0;e0e0weds s2886wwqyu9kkkkkkkkk",
"kkkkkkkkkwuuy996458qryyye507qe705ey02 2-54699yuuwkkkkkkkkk",
"kkkkkkkkkeuutt54-580;eeee506qe605eey0;-85-45ttuuekkkkkkkkk",
"kkkkkkkkkeuewww:-4-$$$$$:-98;089-:$$$$:-4-:wwweuekkkkkkkkk",
"kkkkkkkkwyue7444#-44:90:9:987089:9:09:44-#4447euywkkkkkkkk",
"kkkkkkkkwuutw6;$%.47:07:8:987989:8:70:74.%$;6wtuuwkkkkkkkk",
"kkkkkkkkyuuur6;#;.-7:05:6;98oq89;6:50:7-.;#;6ruuuykkkkkkkk",
"kkkkkkkwwww09%%#%.-4%6:-4;887q88;4-:6%4-.%#%%90wwwwkkkkkkk",
"kkkkkkkqtutqq%o%o..-%6:%:;887988;:%:6%-..o%o%qqtutqkkkkkkk",
"kkkkkk7qttwr6%#o....o%%%%;:7o;7:;%%%%o....o#%6rwttq7kkkkkk",
"kkkkkk7qtqrq%#$....$%::4-#%4%-4%#-4::%$....$#%qrqtq7kkkkkk",
"kkkkkk7qtq94$........%;4-.88%4%#.-4;%........$49qtq7kkkkkk",
"kkkkkk7qtir4--o.k.    .o##88.##.##o. OOO.k.o--4ritq7kkkkkk",
"kkkkkk7qqtur4-$okkO     OOjjssO   OO   Okko$-4rutqq7kkkkkk",
"kkkkkk7qqtuur--$kkOO      jjdhOO        kk$--ruutqq7kkkkkk",
"kkkkkkkqqe744%o-kk$OO  OO 33sdOOO   .o#$kk-o%447eqqkkkkkkk",
"kkkkkkkqq74ugt4o-k$#$$$$$$$$$#$$$$$$$$$#$ko4tgu47qqkkkkkkk",
"kkkkkkk7q4gggge;-$-e9888qqq4$$;;;;;-%$$$$-;egggg4q7kkkkkkk",
"kkkkkkkkqugrrgg4-$-ye0888q84$$666664::;;:-4ggrrguqkkkkkkkk",
"kkkkkkkk7ggrr5r4-.-wee998844$$99964::;;;:-4r5rrgg7kkkkkkkk",
"kkkkkkkkkiiiirtq4#-8we006644$$9744:;;;;;:4qtriiiikkkkkkkkk",
"kkkkkkkkkiiie9999#-446666444$$54::;;;::::9999eiiikkkkkkkkk",
"kkkkkkkkkkre9999.##-4464444-$.;:;;;;::45559999erkkkkkkkkkk",
"kkkkkkkkkkkre99k.####-------$.-;;;;::45555599erkkkkkkkkkkk",
"kkkkkkkkkkkkkkk.#######%----$o%-;;;:4577777$kkkkkkkkkkkkkk",
"kkkkkkkkkkkkkkk.############$o$$--:45777777$kkkkkkkkkkkkkk",
"kkkkkkkkkkkkkkk...########..$.o..$$$$%%%-%%$kkkkkkkkkkkkkk",
"kkkkkkkkkkkkkkk%;;444444:::%oo%:::444444;;:%kkkkkkkkkkkkkk",
"kkkkkkkkkkkkkk%:700rw098884----488890wr007:4kkkkkkkkkkkkkk",
"kkkkkkkkkkkkkk%48wwre0999884%%4889990erww84:kkkkkkkkkkkkkk",
"kkkkkkkkkkkkkk%68wqtw0097844%%4487900wtqw86;$kkkkkkkkkkkkk",
"kkkkkkkkkkkkkk%90wqtwww9764;%%;4679wwwtqw097;kkkkkkkkkkkkk",
"kkkkkkkkkkkkkk%0wwqywww0964;%%%4690wwwyqww07;kkkkkkkkkkkkk",
"kkkkkkkkkkkkk%79qwqywwe974:;%k%:479ewwyqwq97%kkkkkkkkkkkkk",
"kkkkkkkkkkkkk%700wqywwew74:-%k%%47wewwyqw007;kkkkkkkkkkkkk",
"kkkkkkkkkkkkk%0qwwqywwew6:-%kk%%:6wewwyqwwq0;kkkkkkkkkkkkk",
"kkkkkkkkkkkkk;99qwqtwwew64%%kkk%46wewwtqwq99;kkkkkkkkkkkkk",
"kkkkkkkkkkkkk;79qwqrwwew74-%kkk-47wewwrqwq97;kkkkkkkkkkkkk",
"kkkkkkkkkkkkk;7wwwqrwwew74;kkkk;47wewwrqwww7;kkkkkkkkkkkkk",
"kkkkkkkkkkkkk5qeewqrwww964;kkkk;469wwwrqweeq5kkkkkkkkkkkkk",
"kkkkkkkkkkkkk57eewqrw09964;kkkk;46990wrqwee75kkkkkkkkkkkkk",
"kkkkkkkkkkkkk-:67qqe000007-kkkk-700000eqq76:-kkkkkkkkkkkkk",
"kkkkkkkkkkkkk#:::7q0888897-kkkk-7988880q7:::#kkkkkkkkkkkkk",
"kkkkkkkkkkkkk#;:::00889964$kkkk$46998800:::;#kkkkkkkkkkkkk",
"kkkkkkkkkkkkk%;-::9088964:$kkkk$:4698809::-;%kkkkkkkkkkkkk",
"kkkkkkkkkkkkk-;$-:606995;;#kkkk#;;599606:-$;-kkkkkkkkkkkkk",
"kkkkkkkkkkkk#%-4$-60996:;;:#kk#:;;:69906-$4-%#kkkkkkkkkkkk",
"kkkkkkkkkkkk#6-4%%5096:;;:4#kk#4:;;:6905%%4-6#kkkkkkkkkkkk",
"kkkkkkkkkkkk#-64--4096;:44%#kk#%44:;6904--46-#kkkkkkkkkkkk",
"kkkkkkkkkkkkk##-57rew777% #kkkk# %777wer75-##kkkkkkkkkkkkk",
"kkkkkkkkkkkkkO    +@      kkkkkk      @+    Okkkkkkkkkkkkk",
"kkkkkkkkkkkkkOO+  O@    OkkkkkkkkO    @O  +OOkkkkkkkkkkkkk",
"kkkkkkkkkkkkk  OO  +     kkkkkkkk     +  OO  kkkkkkkkkkkkk",
"kkkkkkkkkkkkk O+@ +      kkkkkkkk      + @+O kkkkkkkkkkkkk",
"kkkkkkkkkkkkkkO+  O    O kkkkkkkk O    O  +Okkkkkkkkkkkkkk",
"kkkkkkkkkkkkkk OO +  OOOkkkkkkkkkkOOO  + OO kkkkkkkkkkkkkk",
"kkkkkkkkkkkkkk O+@      kkkkkkkkkk      @+O kkkkkkkkkkkkkk",
"kkkkkkkkkkkkkk O        kkkkkkkkkk        O kkkkkkkkkkkkkk",
"kkkkkkkkkkkkkk O      O kkkkkkkkkk O      O kkkkkkkkkkkkkk",
"kkkkkkkkkkkkkk  ++    OkkkkkkkkkkkkO    ++  kkkkkkkkkkkkkk",
"kkkkkkkkkkkkkk        OkkkkkkkkkkkkO        kkkkkkkkkkkkkk",
"kkkkkkkkkkkkk          kkkkkkkkkkkk          kkkkkkkkkkkkk",
"kkkkkkkkkkkk OOO+++O   OkkkkkkkkkkO   O+++OOO kkkkkkkkkkkk",
"kkkkkkkkkkk OOOO+++@O  OkkkkkkkkkkO  O@+++OOOO kkkkkkkkkkk",
"kkkkkkkkkkk OOOOOOOO  OOkkkkkkkkkkOO  OOOOOOOO kkkkkkkkkkk",
"kkkkkkkkkkk O           kkkkkkkkkk           O kkkkkkkkkkk",
"kkkkkkkkkkkkO          kkkkkkkkkkkk          Okkkkkkkkkkkk"
};
