/* XPM */
static char *result[] = {
/* columns rows colors chars-per-pixel */
"58 100 51 1 ",
"  c black",
". c #1E1E1E",
"X c #2A220E",
"o c #363600",
"O c #3A2E16",
"+ c #222222",
"@ c gray18",
"# c #3A3A3A",
"$ c #42321A",
"% c #4A3A1A",
"& c #563E1E",
"* c #424200",
"= c #4E4E00",
"- c #6A6A00",
"; c #5E4222",
": c #6E4A26",
"> c #764E2A",
", c gray29",
"< c #565656",
"1 c #5A5A5A",
"2 c gray40",
"3 c #727272",
"4 c #7E7E7E",
"5 c #9E4E00",
"6 c #B65600",
"7 c #82522E",
"8 c #8A5A32",
"9 c #925E36",
"0 c #9E623A",
"q c #A2663E",
"w c #CE6200",
"e c #AA6A42",
"r c #B67246",
"t c #BE7A4A",
"y c #CA7E4E",
"u c #D28252",
"i c #DE8A56",
"p c #EA8E5A",
"a c #F2965E",
"s c #FE9E62",
"d c #FEA672",
"f c #0000FE",
"g c #007ECE",
"h c #9A9A9A",
"j c #AAAAAA",
"k c #B6B6B6",
"l c #FEB282",
"z c #FEBA92",
"x c #D2D2D2",
"c c gray87",
"v c None",
/* pixels */
"vvvvvvvvvvvvvvvvvvvvvvvvvvvvvvvvvvvvvvvvvvvvvvvvvvvvvvvvvv",
"vvvvvvvvvvvvvvvvvvvvvvvvvvvvvvvvvvvvvvvvvvvvvvvvvvvvvvvvvv",
"vvvvvvvvvvvvvvvvvvvvvvvvvvvvvvvvvvvvvvvvvvvvvvvvvvvvvvvvvv",
"vvvvvvvvvvvvvvvvvvvvvvvvvvvvvvvvvvvvvvvvvvvvvvvvvvvvvvvvvv",
"vvvvvvvvvvvvvvvvvvvvvvvvv########vvvvvvvvvvvvvvvvvvvvvvvvv",
"vvvvvvvvvvvvvvvvvvvvvvv##,,#++#,,##vvvvvvvvvvvvvvvvvvvvvvv",
"vvvvvvvvvvvvvvvvvvvvvv##,#@++++@#,##vvvvvvvvvvvvvvvvvvvvvv",
"vvvvvvvvvvvvvvvvvvvvv##,#@++++++@#,##vvvvvvvvvvvvvvvvvvvvv",
"vvvvvvvvvvvvvvvvvvvvv<,<#@++++++@#<,<vvvvvvvvvvvvvvvvvvvvv",
"vvvvvvvvvvvvvvvvvvvvv#,<#@#,,,,#@#<,#vvvvvvvvvvvvvvvvvvvvv",
"vvvvvvvvvvvvvvvvvvvvv#,<<<222222<<<,#vvvvvvvvvvvvvvvvvvvvv",
"vvvvvvvvvvvvvvvvvvvv#,<223444444322<,#vvvvvvvvvvvvvvvvvvvv",
"vvvvvvvvvvvvvvvvvvvv,<#            #<,vvvvvvvvvvvvvvvvvvvv",
"vvvvvvvvvvvvvvvvvvvv<#o*OOOOOOOOOO*o#<vvvvvvvvvvvvvvvvvvvv",
"vvvvvvvvvvvvvvvvvvv#@ *=o=--;;--=o=* @#vvvvvvvvvvvvvvvvvvv",
"vvvvvvvvvvvvvvvvvvv+  8-%gfO88Ofg%-8  +vvvvvvvvvvvvvvvvvvv",
"vvvvvvvvvvvvvvvvvvv   yqq97addy79qqy   vvvvvvvvvvvvvvvvvvv",
"vvvvvvvvvvvvvvvvvvv   8tszztzztzzpt8   vvvvvvvvvvvvvvvvvvv",
"vvvvvvvvvvvvvvvvvvvv   qpdi8&&8idpq   vvvvvvvvvvvvvvvvvvvv",
"vvvvvvvvvvvvvvvvvvvvv  9udasuusadu9  vvvvvvvvvvvvvvvvvvvvv",
"vvvvvvvvvvvvvvvvvvvvvvv>udt&88&tdu>vvvvvvvvvvvvvvvvvvvvvvv",
"vvvvvvvvvvvvvvvvvvvvvvv;tddszzsddt;vvvvvvvvvvvvvvvvvvvvvvv",
"vvvvvvvvvvvvvvvvvvvvvv OepdiqqidpeO vvvvvvvvvvvvvvvvvvvvvv",
"vvvvvvvvvvvvvvvvvvvvvv  OqallllaqO  vvvvvvvvvvvvvvvvvvvvvv",
"vvvvvvvvvvvvvvvvvvvvqq   O>>>>>7O   qqvvvvvvvvvvvvvvvvvvvv",
"vvvvvvvvvvvvvvvvqiiiyq    X&99&X    qyiqvvvvvvvvvvvvvvvvvv",
"vvvvvvvvvvvvruddaaaiy0O  1#    #1  O0yiaai9vvvvvvvvvvvvvvv",
"vvvvvvvvvvvuddddssssit0% #1 $$ 1# %0tissssiiyvvvvvvvvvvvvv",
"vvvvvvvvvvudspddssssssu0:% %99% %:0usssssssssivvvvvvvvvvvv",
"vvvvvvvvvuddppddaaaaspiyq::9qq9::qyipsaaaassssivvvvvvvvvvv",
"vvvvvvvvudappupspippsiiiytt0:i0ttyipk#kaipyasssivvvvvvvvvv",
"vvvvvvvuddputtqsiitiauiyuiiytpyiiuykh+h3iiypaaasvvvvvvvvvv",
"vvvvvvudaput00>iiruiauiuuiiytpyiiuu#++  rieppppsevvvvvvvvv",
"vvvvvudpput098>rqqrrriiuyrur:ururyukh h3qq9yytasevvvvvvvvv",
"vvvvudapute97;&778qtiaaau8r0tu0r8uar3 3;879eeassyvvvvvvvvv",
"vvvuddpute9>;&&&78qr:uuuu8r9tu9r8uuar:;q8;78ppssuvvvvvvvvv",
"vvudapute9>;&%$O;7;%%%%%>;eq:rqe;>%%%%>;7;>yyyusuvvvvvvvvv",
"vuddpree9>;&%$;O$;77>er>e>eq0rqe>e>re>77;$7770usayvvvvvvvv",
"vuuur>$$&;%%;;Ov&X70>r0>q>eq0eqe>q>0r>07X&%:9ypssyvvvvvvvv",
"vdur&&$$$$$;OOvv:X;0>r8>9:eqOtqe:9>8r>0;X:$:9isssavvvvvvvv",
"qaddiy97;OOOvvvv&X;7&9>;7:qq0tqq:7;>9&7;X&$&&eryyyyvvvvvvv",
"qadddu7;OOvvvvvvOXX;&9>&>:qq0eqq:>&>9&;XXO&O&ttpsptvvvvvvv",
"qadptt&&OOvvvvvvXXXXO&&&&:>0O:0>:&&&&OXXXXO$&9iyppt0vvvvvv",
"qapttt7&OOvvvvvvXXX%&>>7;$&7&;7&$;7>>&%XXXX%$&titpt0vvvvvv",
"qidputq9&OOvvvvvXXXXX&:7;Xqq&7&$X;7:&XXXXXXXX%7etpt0vvvvvv",
"qiddputq9&OvvvvvvX+   XO$$qqX$$X$$OX +++XvXO;;7idpt0vvvvvv",
"9ia7&&&&&&vvvvvvX+      ++cchh+   ++   +vvO%;7isptt0vvvvvv",
"9i7&&7iiip7vvvvv++++      cckx++        vv%;;issptt0vvvvvv",
"vv&&rraallpt;;7aae&++  ++ 44hk+++   XO$%v;;O&770uttvvvvvvv",
"vv&&rraa99tpt;yyaaue%%%%%%%%X$%%%%%%%%%$$;O7pzs70ttvvvvvvv",
"vvv>rrla99++,,;7qyaueqqqtt77X%:::::;&%%%%;:uzzzz7t0vvvvvvv",
"vvv>rrla99+33@;;qqyaurqqqt77X%999997>>::>;7zziizstvvvvvvvv",
"vvvv>>aauq,3j3@$;7qyuueeqq77X%eee97>>:::>;7i8iizz0vvvvvvvv",
"vvvvv>qauu,3jj3@$;7qyurrrr77X%e077>:::::>7tpiddddvvvvvvvvv",
"vvvvvv>>>>v+3jj3w$$779999977X%87>>:::>>>>eeeeudddvvvvvvvvv",
"vvvvvvvvvvvvv3336w$;77999977X%:>::::>>7888eeeeuivvvvvvvvvv",
"vvvvvvvvvvvvv;5;56w$$;;;;;;;X%;::::>>788888eeuivvvvvvvvvvv",
"vvvvvvvvvvvvv$;5;56>$$$&;;;;XO&;:::>78000007&vvvvvvvvvvvvv",
"vvvvvvvvvvvvvv$;5;56$$$$$$$$XO%%;;>780000007&vvvvvvvvvvvvv",
"vvvvvvvvvvvvvvv$;5;5$;&&$$XXXXO&%%%%%&&&;&&7&vvvvvvvvvvvvv",
"vvvvvvvvvvvvvvv7$;;;$;88::&OOO&>>>777777::>&&vvvvvvvvvvvvv",
"vvvvvvvvvvvvvvv00:;$$;88::&&;;;7qqqeryirr0>7vvvvvvvvvvvvvv",
"vvvvvvvvvvvvvv0ttt00ee008:;;&&7qqeeeruiyyq7>vvvvvvvvvvvvvv",
"vvvvvvvvvvvvvvttttttqq87::&&&&77q0erryptyq9:%vvvvvvvvvvvvv",
"vvvvvvvvvvvvvvrrttpayqee8:;&&&:790eyyyptyre0:vvvvvvvvvvvvv",
"vvvvvvvvvvvvvrrrriasyqrtq>;$$&:79eryyyatyyr0:vvvvvvvvvvvvv",
"vvvvvvvvvvvvveeetassyqrtq7;$X&:>70euyyatyte0&vvvvvvvvvvvvv",
"vvvvvvvvvvvvveetpsdsyqrtq7;$XX;>70yuyyatyrr0:%vvvvvvvvvvvv",
"vvvvvvvvvvvveetisddsqqerq7;$Xv&;>9yuyyatyytr:&vvvvvvvvvvvv",
"vvvvvvvvvvvvetypdddi0q0eq>&$Xv&&79yuyyptytee:&vvvvvvvvvvvv",
"vvvvvvvvvvvvqyiaddie88009>&Xvvv;70yuyyityte0:;vvvvvvvvvvvv",
"vvvvvvvvvvvvriadlsy8:>808;$Xvvv:70yuyyityyy0:;vvvvvvvvvvvv",
"vvvvvvvvvvvqrisdlsq&:>>7:$$Xvvv:79eyyyityuut8&vvvvvvvvvvvv",
"vvvvvvvvvvvryisdls8&;:>;%OOvvvv:79eeryityuu08;vvvvvvvvvvvv",
"vvvvvvvvvvvryisdld8&&8&%%O$vvvv;0rrrrrutt09>;&vvvvvvvvvvvv",
"vvvvvvvvvv0qyisdld;;>8&OOO$vvvv;0eqqqqrt0>>>$&vvvvvvvvvvvv",
"vvvvvvvvvv0qyisdlu&;70&OOO$vvvv%79eeqqrr>>>:$%vvvvvvvvvvvv",
"vvvvvvvvvv00tipsd0&:>70&$Ovvvvv%>79eqqre>>;:&$vvvvvvvvvvvv",
"vvvvvvvvv>7>etppp7;>777:&$vvvvv$::8ee9r9>;%:;$vvvvvvvvvvvv",
"vvvvvvvvv>:>8errq&&>77:;&vvvvv$>::>9eer9;%&7;&$vvvvvvvvvvv",
"vvvvvvvvv&;:>79q0&&;;&&&$vvvvv$7>::>9er8&&>7;9$vvvvvvvvvvv",
"vvvvvvvvv%%&:>>>>&;&$O$&$vvvvv$&77>:9er7;;779;$vvvvvvvvvvv",
"vvvvvvvvvv+OO%>08$%%OX$$vvvvvvv$ &000yui087;$$vvvvvvvvvvvv",
"vvvvvvvvvv++++++++++++Xvvvvvvvvv      #@    +vvvvvvvvvvvvv",
"vvvvvvvvvv###+    +#@+vvvvvvvvvv +    #+  @++vvvvvvvvvvvvv",
"vvvvvvvvvv<,#+    +,@+vvvvvvvvvv +    @  ++  vvvvvvvvvvvvv",
"vvvvvvvvvv<,#+    +,@@vvvvvvvvvvv     @ #@+ vvvvvvvvvvvvvv",
"vvvvvvvvvv,,#+    +#@vvvvvvvvvvvv+    +  @+vvvvvvvvvvvvvvv",
"vvvvvvvvvv###+    +@@vvvvvvvvvvvv+++  @ ++ vvvvvvvvvvvvvvv",
"vvvvvvvvvvv##+    ++@vvvvvvvvvvvv      #@+ vvvvvvvvvvvvvvv",
"vvvvvvvvvvvv,@.   +@vvvvvvvvvvvvv        + vvvvvvvvvvvvvvv",
"vvvvvvvvvvv,#+    +@vvvvvvvvvvvvv +      + vvvvvvvvvvvvvvv",
"vvvvvvvvvvv+#++  ++@vvvvvvvvvvvvvv+    @@  vvvvvvvvvvvvvvv",
"vvvvvvvvvv+#@+   +#@@vvvvvvvvvvvvv+        vvvvvvvvvvvvvvv",
"vvvvvvvvv#@#+    +@+@vvvvvvvvvvvvv          vvvvvvvvvvvvvv",
"vvvvvvvv++#+     @  @vvvvvvvvvvvv+   +@@@+++ vvvvvvvvvvvvv",
"vvvvvvv++@++.       vvvvvvvvvvvvv+  +#@@@++++ vvvvvvvvvvvv",
"vvvvvvv+   .+++    vvvvvvvvvvvvvv++  ++++++++ vvvvvvvvvvvv",
"vvvvvvv+           vvvvvvvvvvvvvv           + vvvvvvvvvvvv",
"vvvvvvvv          vvvvvvvvvvvvvvvv          +vvvvvvvvvvvvv"
};
