/* XPM */
static char *result[] = {
/* columns rows colors chars-per-pixel */
"58 100 47 1 ",
"  c black",
". c #1E1E1E",
"X c #2A220E",
"o c #363600",
"O c #3A2E16",
"+ c #222222",
"@ c gray18",
"# c #3A3A3A",
"$ c #42321A",
"% c #4A3A1A",
"& c #563E1E",
"* c #4E4E00",
"= c #6A6A00",
"- c #5E4222",
"; c #6E4A26",
": c #764E2A",
"> c gray29",
", c #565656",
"< c gray40",
"1 c #727272",
"2 c #7E7E7E",
"3 c #82522E",
"4 c #8A5A32",
"5 c #925E36",
"6 c #9E623A",
"7 c #A2663E",
"8 c #AA6A42",
"9 c #B67246",
"0 c #BE7A4A",
"q c #CA7E4E",
"w c #D28252",
"e c #DE8A56",
"r c #EA8E5A",
"t c #F2965E",
"y c #FE9E62",
"u c #FEA672",
"i c #0000FE",
"p c #007ECE",
"a c #8E8E8E",
"s c #9A9A9A",
"d c #B6B6B6",
"f c #FEB282",
"g c #FEBE9E",
"h c #FECEB2",
"j c #D2D2D2",
"k c #EEEEEE",
"l c None",
/* pixels */
"llllllllllllllllllllllllllllllllllllllllllllllllllllllllll",
"llllllllllllllllllllllllllllllllllllllllllllllllllllllllll",
"llllllllllllllllllllllllllllllllllllllllllllllllllllllllll",
"llllllllllllllllllllllllllllllllllllllllllllllllllllllllll",
"llllllllllllllllllllllllllllllllllllllllllllllllllllllllll",
"llllllllllllllllllllllllllllllllllllllllllllllllllllllllll",
"lllllllllllllllllllllllll########lllllllllllllllllllllllll",
"lllllllllllllllllllllll##>######>##lllllllllllllllllllllll",
"llllllllllllllllllllll#>>>#@++@#>>>#llllllllllllllllllllll",
"lllllllllllllllllllll#>>>#@++++@#>>>#lllllllllllllllllllll",
"lllllllllllllllllllll,>>#@++++++@#>>,lllllllllllllllllllll",
"lllllllllllllllllllll#>>#@++++++@#>>#lllllllllllllllllllll",
"lllllllllllllllllllll#>,#@++++++@#,>#lllllllllllllllllllll",
"llllllllllllllllllll##>,#@#>>>>#@#,>##llllllllllllllllllll",
"llllllllllllllllllll###,,,<<<<<<,,,###llllllllllllllllllll",
"llllllllllllllllllll##,<<12222221<<,##llllllllllllllllllll",
"lllllllllllllllllll#@  Xo*==XX==*o   @#lllllllllllllllllll",
"lllllllllllllllllll+  XO%piOXXOip%OX  +lllllllllllllllllll",
"lllllllllllllllllll   O44&&3w6:&&44O   lllllllllllllllllll",
"lllllllllllllllllll   &9rfy3e63yfr9&   lllllllllllllllllll",
"lllllllllllllllllll   $0ryq##34qyr0$   lllllllllllllllllll",
"llllllllllllllllllll   ;wrq>>55qrw3   llllllllllllllllllll",
"lllllllllllllllllllll  ;65skks5574%  lllllllllllllllllllll",
"lllllllllllllllllll60q  ;,s  s#53;  0eelllllllllllllllllll",
"llllllllllllllleee660q  %,<  <,;;%  0000eqelllllllllllllll",
"llllllllllllllqe0qw770-  @,##,@%%  $077750rqllllllllllllll",
"llllllllllllqe766&4::60  @@++@@w6  76:74&6rre7llllllllllll",
"lllllllllllq00w6%XX;&366   @@  7w6 ;&&7XX%60007lllllllllll",
"llllllllll:59ewttttee73333 @$:ehhrq$40ettyeye7::llllllllll",
"lllllllll-:5eq00qteq7388ftr40uhqq6qf030eeq06807--lllllllll",
"llllllll&%&:66579we736wwtw4%rutuhryee539997645;&%&llllllll",
"llllllll&%&:;:3456e-50wwfrq4%%98q6qye5-86543:;;%%&llllllll",
"llllllll&%&-;:34560-3588fw5%8utthryee3-66543:;-%%&llllllll",
"llllllll&&&-;::::36%%455ef0%%%78q6qq6-&33::::;-$$&llllllll",
"lllllllllO--------3%O-66ew9;&6qugeq93O%3-------$Olllllllll",
"llllllllllO%%%%%%%%3%O--409;&%38089;%%3:333::-%Ollllllllll",
"lllllllllllOOOXXXXXXXO%%%--$$$$$&&%%$XXXXXXXOOOlllllllllll",
"llllllllllllll$$%%O--O%::48887%06:8:;-X&$OXXllllllllllllll",
"lllllllllllllll-46-;;&;::870O6-08:7:99%63:Xlllllllllllllll",
"lllllllllllllll-46-;;&;::80066-08:7:99%63:Xlllllllllllllll",
"lllllllllllllll:76:94:5;:80744:08;5:77:63-Xlllllllllllllll",
"lllllllllllllll:84:7:73;:788O3:08;3-:5&3-OXlllllllllllllll",
"llllllllllllllll94:::7:;:4;76;-08;:&::&-&Xllllllllllllllll",
"llllllllllllllll947::::;:4;;6;-08;:&::&-&Xllllllllllllllll",
"llllllllllllllllq07444&;&3--O;%84-&&&---OXllllllllllllllll",
"llllllllllllllll7q0743-&$&333%&44;-::&;$XXllllllllllllllll",
"lllllllllllllllll5q087:-&$$$X&&-4:--:$;:Xlllllllllllllllll",
"lllllllllllllllll5q087:-&&&$XXX-4:--:$$:Xlllllllllllllllll",
"lllllllllllllllll;454:&O&&&&OOO:::&&$$$XXlllllllllllllllll",
"lllllllllllllllll+       ++ssss       +  lllllllllllllllll",
"lllllllllllllllll++   ++   jds1    ++   +lllllllllllllllll",
"lllllllllllllllll++++      dss<+++      +lllllllllllllllll",
"llllllllllllllllq94::36665::&&::80997;33OXllllllllllllllll",
"lllllllllllllllqq94:4888875:&$::89975;-3OXXlllllllllllllll",
"llllllllllllllqr94::r090095:&$:488867;;;-OXlllllllllllllll",
"llllllllllllllqt94:te090095:&$:4888673:4-%OOllllllllllllll",
"lllllllllllllqrt9qtr0900095:&$:488867545-%OOllllllllllllll",
"lllllllllllllqrtqttr0900095:$$:488887546-%OOXlllllllllllll",
"llllllllllllqrttttte0900095&OX&488887756;%OOXlllllllllllll",
"llllllllllllqrttttr0900007:OXX$598887754;%OOXlllllllllllll",
"llllllllllllqrtttte090007:&XX$$$59987775;%OOXXllllllllllll",
"llllllllllllqrtttt090007:-XX$$$$$59998654:&-$Xllllllllllll",
"llllllllllll5544::::::::-XX$$%$$$$$$$$$$$$$$XXllllllllllll",
"llllllllllll0000007743;-$X$$%&$$-:47799qq3;%$Xllllllllllll",
"llllllllllll9900rtq7884;-$$OXOO&-;8qeerfy6;$OXllllllllllll",
"lllllllllll9999etyq7907:-$$Xll$&-68qeryfy3&OOOllllllllllll",
"lllllllllll8880tyyq79073-$XXlll&-680eryff3$OXX$lllllllllll",
"lllllllllll880ryuyq79073-$XXlll%-580eruff3$XXX$lllllllllll",
"llllllllll880eyuuy778973-$Xlllll&4588ruff55&XX$lllllllllll",
"llllllllll80qruuue67687:&$Xlllll&&&48ruff755&X&-llllllllll",
"llllllllll7qetuue844665:&Xlllllll&:7qryufq775;-;llllllllll",
"llllllllll9etufyq4;:464-$Xlllllll:7q00yuff77773;llllllllll",
"lllllllll79eyufy7&;::3;$$Xlllllll70090yuff955773llllllllll",
"lllllllll69eyufu4&&4&%%O$llllllll588:eyuffw43577&lllllllll",
"lllllllll67qeyufw&-36&OOOllllllll;4::eyyufw43337&lllllllll",
"lllllllll660eryu6&;:36&$Ollllllll;-&7eryufr&:;:4&lllllllll",
"llllllll:3:80rrr3-:333;&lllllllll%$:wertutr&&-;;Olllllllll",
"llllllll:;:48997&&:33;-&llllllllll478wweetw3$&&&Olllllllll",
"llllllll&-;:3576&&--&&&$llllllllll3579w9qtw5X$$$Xlllllllll",
"llllllll%%&;::::&-&$O$&$llllllllll;:57557004XXX$$lllllllll",
"lllllllll+OO%:64$%%OX$$llllllllllll;;3333353%$%&&lllllllll",
"lllllllll++++++++++++Xlllllllllllll%%%%;;4606;++llllllllll",
"lllllllll###+    +#@+lllllllllllllll++@#++     +llllllllll",
"lllllllll,>#+    +>@+lllllllllllllll+@@##+     +llllllllll",
"lllllllll,>#+    +>@@lllllllllllllll+@@#>+     +llllllllll",
"lllllllll>>#+    +#@lllllllllllllllll+@##+     +llllllllll",
"llllllllll##+    +@@lllllllllllllllll+@#@+    ++llllllllll",
"llllllllll##+    ++@lllllllllllllllll+@@##    ++llllllllll",
"lllllllllll>@.   +@lllllllllllllllllll+@#>     +llllllllll",
"llllllllll>#+    +@lllllllllllllllllll+@##+     llllllllll",
"llllllllll+#++  ++@llllllllllllllllllll+@#+     +lllllllll",
"lllllllll+#@+   +#@@lllllllllllllllllll+@>@+++   lllllllll",
"llllllll#@#+    +@+@llllllllllllllllllll+>1,+    lllllllll",
"lllllll++#+     @  @lllllllllllllllllll+#>>+     +llllllll",
"llllll++@++.       llllllllllllllllllll#,,>++.    +lllllll",
"llllll+   .+++    lllllllllllllllllllll#,#,1>#++ +++llllll",
"llllll+          llllllllllllllllllllll+@ ><,@+    + lllll",
"lllllll         llllllllllllllllllllllll  +><a<,#  + lllll",
"lllllllllllllllllllllllllllllllllllllllll  +#,##++++ lllll",
"llllllllllllllllllllllllllllllllllllllllll +#,++++++llllll"
};
