/* XPM */
static char *result[] = {
/* columns rows colors chars-per-pixel */
"58 100 54 1 ",
"  c black",
". c #1E1E1E",
"X c #2A220E",
"o c #3A2E16",
"O c #222222",
"+ c gray18",
"@ c #3A3A3A",
"# c #42321A",
"$ c #4A3A1A",
"% c #563E1E",
"& c #5E4222",
"* c #6E4A26",
"= c #764E2A",
"- c gray29",
"; c #565656",
": c gray40",
"> c #727272",
", c #FE0000",
"< c #9E4E00",
"1 c #B65600",
"2 c #82522E",
"3 c #8A5A32",
"4 c #925E36",
"5 c #9E623A",
"6 c #A2663E",
"7 c #F65E0E",
"8 c #EE7E1E",
"9 c #AA6A42",
"0 c #B67246",
"q c #BE7A4A",
"w c #CA7E4E",
"e c #929200",
"r c #AEAE00",
"t c #FE8A22",
"y c #F2B222",
"u c #D6D600",
"i c #FEFE00",
"p c #D28252",
"a c #DE8A56",
"s c #FE9A42",
"d c #EA8E5A",
"f c #F2965E",
"g c #FEAA5E",
"h c #FE9E62",
"j c #FEA672",
"k c #FEFE56",
"l c #8E8E8E",
"z c #9A9A9A",
"x c #B6B6B6",
"c c #FEB282",
"v c #FEBE9E",
"b c #FECEB2",
"n c #D2D2D2",
"m c None",
/* pixels */
"mmmmmmmmmmmmmmmmmmmmmmmmmmmmmmmmmmmmmmmmmmmmmmmmmmmmmmmmmm",
"mmmmmmmmmmmmmmmmmmmmmmmmmmmmmmmmmmmmmmmmmmmmmmmmmmmmmmmmmm",
"mmmmmmmmmmmmmmmmmmmmmmmmmmmmmmmmmmmmmmmmmmmmmmmmmmmmmmmmmm",
"mmmmmmmmmmmmmmmmmmmmmmmmmmmmmmmmmmmmmmmmmmmmmmmmmmmmmmmmmm",
"mmmmmmmmmmmmmmmmmmmmmmmmmmmmmmmmmmmmmmmmmmmmmmmmmmmmmmmmmm",
"mmmmmmmmmmmmmmmmmmmmmmmmmmmmmmmmmmmmmmmmmmmmmmmmmmmmmmmmmm",
"mmmmmmmmmmmmmmmmmmmmmmmmm@@@@@@@@mmmmmmmmmmmmmmmmmmmmmmmmm",
"mmmmmmmmmmmmmmmmmmmmmmm@@-@@@@@@-@@mmmmmmmmmmmmmmmmmmmmmmm",
"mmmmmmmmmmmmmmmmmmmmmm@---@+OO+@---@mmmmmmmmmmmmmmmmmmmmmm",
"mmmmmmmmmmmmmmmmmmmmm@---@+OOOO+@---@mmmmmmmmmmmmmmmmmmmmm",
"mmmmmmmmmmmmmmmmmmmmm@---@+OOOO+@---@mmmmmmmmmmmmmmmmmmmmm",
"mmmmmmmmmmmmmmmmmmmmm;--@+OOOOOO+@--;mmmmmmmmmmmmmmmmmmmmm",
"mmmmmmmmmmmmmmmmmmmmm@-;@+OOOOOO+@;-@mmmmmmmmmmmmmmmmmmmmm",
"mmmmmmmmmmmmmmmmmmmm@@-;@+@----@+@;-@@mmmmmmmmmmmmmmmmmmmm",
"mmmmmmmmmmmmmmmmmmmm@@@;;eruuure;;;@@@mmmmmmmmmmmmmmmmmmmm",
"mmmmmmmmmmmmmmmmmmmm@@;eerukkkuree:;@@mmmmmmmmmmmmmmmmmmmm",
"mmmmmmmmmmmmmmmmmmm@+  XXX 1dd1 X    +@mmmmmmmmmmmmmmmmmmm",
"mmmmmmmmmmmmmmmmmmmO  Xo<7< 11 <7<oX  Ommmmmmmmmmmmmmmmmmm",
"mmmmmmmmmmmmmmmmmmmOO o3tgg2,d=ggt3o OOmmmmmmmmmmmmmmmmmmm",
"mmmmmmmmmmmmmmmmmmmOO %0sgg,,d2ggs0% OOmmmmmmmmmmmmmmmmmmm",
"mmmmmmmmmmmmmmmmmmmOO #qdg,77,3whdq# OOmmmmmmmmmmmmmmmmmmm",
"mmmmmmmmmmmmmmmmmmmmOOOpp,7887,wdp2O Ommmmmmmmmmmmmmmmmmmm",
"mmmmmmmmmmmmmmmmmmmmmm ,,78yy87,63$ Ommmmmmmmmmmmmmmmmmmmm",
"mmmmmmmmmmmmmmmmmmm5qw,,78ykky87,,  qaammmmmmmmmmmmmmmmmmm",
"mmmmmmmmmmmmmmmaaa55q,,,78ykky87,$  qqqqawammmmmmmmmmmmmmm",
"mmmmmmmmmmmmmmwaqwp66q&,,77yy87,$  #q6664qdwmmmmmmmmmmmmmm",
"mmmmmmmmmmmmwa655%3==5q  ,7887,pb  65=63%5dda6mmmmmmmmmmmm",
"mmmmmmmmmmmwqqp5$XX*%255  ,77, bb5 *%%6XX$5qqq6mmmmmmmmmmm",
"mmmmmmmmmm=40apfhhhhh62222 ,,=akidw#3hhhhhaha6==mmmmmmmmmm",
"mmmmmmmmm&=4awqqwfhw6299kfd3,jkww5wcq2haawq59q6&&mmmmmmmmm",
"mmmmmmmm%$%=55460pa625ppfp3$djfkidhaa420006534*%$%mmmmmmmm",
"mmmmmmmm%$%=*=2345a&4qppkkw3$$09w5wha4&95432=**$$%mmmmmmmm",
"mmmmmmmm%$%&*=2345q&2499cp4$9jffkdhaa2&55432=*&$$%mmmmmmmm",
"mmmmmmmm%%%&*====25$$344acq$$$69w5ww5&%22====*&##%mmmmmmmm",
"mmmmmmmmmo&&&&&&&&2$o&55ap0*%5wjvaw02o$2&&&&&&&#ommmmmmmmm",
"mmmmmmmmmmo$$$$$$$$2$o&&3q0*%$29q90*$$2=222==&$ommmmmmmmmm",
"mmmmmmmmmmmoooXXXXXXXo$$$&&#####%%$$#XXXXXXXooommmmmmmmmmm",
"mmmmmmmmmmmmmm##$$o&&o$==39996$q5=9=*&X%#oXXmmmmmmmmmmmmmm",
"mmmmmmmmmmmmmmm&35&**%*==96qo5&q9=6=00$52=Xmmmmmmmmmmmmmmm",
"mmmmmmmmmmmmmmm&35&**%*==9qq55&q9=6=00$52=Xmmmmmmmmmmmmmmm",
"mmmmmmmmmmmmmmm=65=03=4*=9q633=q9*4=66=52&Xmmmmmmmmmmmmmmm",
"mmmmmmmmmmmmmmm=93=6=62*=699o2=q9*2&=4%2&oXmmmmmmmmmmmmmmm",
"mmmmmmmmmmmmmmmm03===6=*=3*65*&q9*=%==%&%Xmmmmmmmmmmmmmmmm",
"mmmmmmmmmmmmmmmm036====*=3**5*&q9*=%==%&%Xmmmmmmmmmmmmmmmm",
"mmmmmmmmmmmmmmmmwq6333%*%2&&o*$93&%%%&&&oXmmmmmmmmmmmmmmmm",
"mmmmmmmmmmmmmmmm6wq632&%#%222$%33*&==%*#XXmmmmmmmmmmmmmmmm",
"mmmmmmmmmmmmmmmmm4wq96=&%###X%%&3=&&=#*=Xmmmmmmmmmmmmmmmmm",
"mmmmmmmmmmmmmmmmm4wq96=&%%%#XXX&3=&&=##=Xmmmmmmmmmmmmmmmmm",
"mmmmmmmmmmmmmmmmm*343=%o%%%%ooo===%%###XXmmmmmmmmmmmmmmmmm",
"mmmmmmmmmmmmmmmmmO       OOzzzz       O  mmmmmmmmmmmmmmmmm",
"mmmmmmmmmmmmmmmmmOO   OO   nxz>    OO   Ommmmmmmmmmmmmmmmm",
"mmmmmmmmmmmmmmmmmOOOO      xzz:OOO      Ommmmmmmmmmmmmmmmm",
"mmmmmmmmmmmmmmmmw03==25554==%%==9q006*22oXmmmmmmmmmmmmmmmm",
"mmmmmmmmmmmmmmmww03=3999964=%#==90064*&2oXXmmmmmmmmmmmmmmm",
"mmmmmmmmmmmmmmwd03==dq0qq04=%#=399956***&oXmmmmmmmmmmmmmmm",
"mmmmmmmmmmmmmmwf03=faq0qq04=%#=3999562=3&$oommmmmmmmmmmmmm",
"mmmmmmmmmmmmmwdf0wfdq0qqq04=%#=399956434&$oommmmmmmmmmmmmm",
"mmmmmmmmmmmmmwdfwffdq0qqq04=##=399996435&$ooXmmmmmmmmmmmmm",
"mmmmmmmmmmmmwdfffffaq0qqq04%oX%399996645*$ooXmmmmmmmmmmmmm",
"mmmmmmmmmmmmwdffffdq0qqqq6=oXX#409996643*$ooXmmmmmmmmmmmmm",
"mmmmmmmmmmmmwdffffaq0qqq6=%XX###40096664*$ooXXmmmmmmmmmmmm",
"mmmmmmmmmmmmwdffffq0qqq6=&XX#####40009543=%&#Xmmmmmmmmmmmm",
"mmmmmmmmmmmm4433========&XX##$##############XXmmmmmmmmmmmm",
"mmmmmmmmmmmmqqqqqq6632*&#X##$%##&=36600ww2*$#Xmmmmmmmmmmmm",
"mmmmmmmmmmmm00qqdfw6993*&##oXoo%&*9waadch5*#oXmmmmmmmmmmmm",
"mmmmmmmmmmm0000afhw60q6=&##Xmm#%&59wadhch2%ooommmmmmmmmmmm",
"mmmmmmmmmmm999qfhhw60q62&#XXmmm%&59qadhcc2#oXX#mmmmmmmmmmm",
"mmmmmmmmmmm99qdhjhw60q62&#XXmmm$&49qadjcc2#XXX#mmmmmmmmmmm",
"mmmmmmmmmm99qahjjh669062&#Xmmmmm%3499djcc44%XX#mmmmmmmmmmm",
"mmmmmmmmmm9qwdjjja56596=%#Xmmmmm%%%39djcc644%X%&mmmmmmmmmm",
"mmmmmmmmmm6wafjja933554=%Xmmmmmmm%=6wdhjcw664*&*mmmmmmmmmm",
"mmmmmmmmmm0afjchw3*=353&#Xmmmmmmm=6wqqhjcc66662*mmmmmmmmmm",
"mmmmmmmmm60ahjch6%*==2*##Xmmmmmmm6qq0qhjcc044662mmmmmmmmmm",
"mmmmmmmmm50ahjcj3%%3%$$o#mmmmmmmm499=ahjccp32466%mmmmmmmmm",
"mmmmmmmmm56wahjcp%&25%ooommmmmmmm*3==ahhjcp32226%mmmmmmmmm",
"mmmmmmmmm55qadhj5%*=25%#ommmmmmmm*&%6adhjcd%=*=3%mmmmmmmmm",
"mmmmmmmm=2=9qddd2&=222*%mmmmmmmmm$#=padfjfd%%&**ommmmmmmmm",
"mmmmmmmm=*=39006%%=22*&%mmmmmmmmmm369ppaafp2#%%%ommmmmmmmm",
"mmmmmmmm%&*=2465%%&&%%%#mmmmmmmmmm2460p0wfp4X###Xmmmmmmmmm",
"mmmmmmmm$$%*====%&%#o#%#mmmmmmmmmm*=46446qq3XXX##mmmmmmmmm",
"mmmmmmmmmOoo$=53#$$oX##mmmmmmmmmmmm**2222242$#$%%mmmmmmmmm",
"mmmmmmmmmOOOOOOOOOOOOXmmmmmmmmmmmmm$$$$**35q5*OOmmmmmmmmmm",
"mmmmmmmmm@@@O    O@+OmmmmmmmmmmmmmmmOO+@OO     Ommmmmmmmmm",
"mmmmmmmmm;-@O    O-+OmmmmmmmmmmmmmmmO++@@O     Ommmmmmmmmm",
"mmmmmmmmm;-@O    O-++mmmmmmmmmmmmmmmO++@-O     Ommmmmmmmmm",
"mmmmmmmmm--@O    O@+mmmmmmmmmmmmmmmmmO+@@O     Ommmmmmmmmm",
"mmmmmmmmmm@@O    O++mmmmmmmmmmmmmmmmmO+@+O    OOmmmmmmmmmm",
"mmmmmmmmmm@@O    OO+mmmmmmmmmmmmmmmmmO++@@    OOmmmmmmmmmm",
"mmmmmmmmmmm-+.   O+mmmmmmmmmmmmmmmmmmmO+@-     Ommmmmmmmmm",
"mmmmmmmmmm-@O    O+mmmmmmmmmmmmmmmmmmmO+@@O     mmmmmmmmmm",
"mmmmmmmmmmO@OO  OO+mmmmmmmmmmmmmmmmmmmmO+@O     Ommmmmmmmm",
"mmmmmmmmmO@+O   O@++mmmmmmmmmmmmmmmmmmmO+-+OOO   mmmmmmmmm",
"mmmmmmmm@+@O    O+O+mmmmmmmmmmmmmmmmmmmmO->;O    mmmmmmmmm",
"mmmmmmmOO@O     +  +mmmmmmmmmmmmmmmmmmmO@--O     Ommmmmmmm",
"mmmmmmOO+OO.       mmmmmmmmmmmmmmmmmmmm@;;-OO.    Ommmmmmm",
"mmmmmmO   .OOO    mmmmmmmmmmmmmmmmmmmmm@;@;>-@OO OOOmmmmmm",
"mmmmmmO          mmmmmmmmmmmmmmmmmmmmmmO+ -:;+O    O mmmmm",
"mmmmmmm         mmmmmmmmmmmmmmmmmmmmmmmm  O-:l:;@  O mmmmm",
"mmmmmmmmmmmmmmmmmmmmmmmmmmmmmmmmmmmmmmmmm  O@;@@OOOO mmmmm",
"mmmmmmmmmmmmmmmmmmmmmmmmmmmmmmmmmmmmmmmmmm O@;OOOOOOmmmmmm"
};
